<svg xmlns="http://www.w3.org/2000/svg" xmlns:xlink="http://www.w3.org/1999/xlink" xmlns:lucid="lucid" width="3784.84" height="3648.62"><g transform="translate(0 0)" lucid:page-tab-id="HWEp-vi-RSFO"><path d="M0 0h3784.84v3648.62H0z" fill="#fff"/><path d="M722 160h319v178H722z" stroke="#333" stroke-width="4" fill="#fff"/><path d="M722 219.2h319" stroke="#333" stroke-width="4" fill="none"/><use xlink:href="#a" transform="matrix(1,0,0,1,730,168) translate(94.57499999999999 14.799999999999999)"/><use xlink:href="#b" transform="matrix(1,0,0,1,730,168) translate(105.1 36.4)"/><use xlink:href="#c" transform="matrix(1,0,0,1,734,227.2) translate(0 17.366666666666667)"/><use xlink:href="#d" transform="matrix(1,0,0,1,734,227.2) translate(46.162962962962965 17.366666666666667)"/><use xlink:href="#e" transform="matrix(1,0,0,1,734,227.2) translate(163.25925925925927 17.366666666666667)"/><use xlink:href="#c" transform="matrix(1,0,0,1,734,227.2) translate(0 42.96666666666667)"/><use xlink:href="#f" transform="matrix(1,0,0,1,734,227.2) translate(46.162962962962965 42.96666666666667)"/><use xlink:href="#e" transform="matrix(1,0,0,1,734,227.2) translate(151.34814814814814 42.96666666666667)"/><use xlink:href="#c" transform="matrix(1,0,0,1,734,227.2) translate(0 68.56666666666668)"/><use xlink:href="#g" transform="matrix(1,0,0,1,734,227.2) translate(46.162962962962965 68.56666666666668)"/><use xlink:href="#e" transform="matrix(1,0,0,1,734,227.2) translate(157.33333333333334 68.56666666666668)"/><use xlink:href="#h" transform="matrix(1,0,0,1,734,227.2) translate(0 94.16666666666669)"/><use xlink:href="#i" transform="matrix(1,0,0,1,734,227.2) translate(44.97777777777778 94.16666666666669)"/><path d="M453.15 75c0-4.42 3.58-8 8-8h836.75c4.4 0 8 3.58 8 8v25.16c0 4.4-3.6 8-8 8H461.15c-4.42 0-8-3.6-8-8z" stroke="#000" stroke-opacity="0" stroke-width="2" fill="#fff" fill-opacity="0"/><use xlink:href="#j" transform="matrix(1,0,0,1,457.1465527853429,70.99999999994924) translate(321.2124691358025 23.657777777777778)"/><path d="M729.63 106.8H1039M729.65 106.8h-1.02M1038.96 106.8h1.03" stroke="#a9afb8" stroke-width="2" fill="none"/><path d="M453.15 116.16c0-4.42 3.58-8 8-8h837.7c4.42 0 8 3.58 8 8V119c0 4.42-3.58 8-8 8h-837.7c-4.42 0-8-3.58-8-8z" stroke="#000" stroke-opacity="0" stroke-width="2" fill="#fff" fill-opacity="0"/><use xlink:href="#k" transform="matrix(1,0,0,1,457.1465527853434,112.15522395684805) translate(336.8904012345679 14.917037037037037)"/><use xlink:href="#l" transform="matrix(1,0,0,1,457.1465527853434,112.15522395684805) translate(392.084537037037 14.917037037037037)"/><use xlink:href="#m" transform="matrix(1,0,0,1,457.1465527853434,112.15522395684805) translate(409.0804218106996 14.917037037037037)"/><use xlink:href="#n" transform="matrix(1,0,0,1,457.1465527853434,112.15522395684805) translate(421.5299074074074 14.917037037037037)"/><use xlink:href="#o" transform="matrix(1,0,0,1,457.1465527853434,112.15522395684805) translate(456.24400205761316 14.917037037037037)"/><use xlink:href="#p" transform="matrix(1,0,0,1,457.1465527853434,112.15522395684805) translate(481.737829218107 14.917037037037037)"/><path d="M160 480h300v101H160z" stroke="#333" stroke-width="4" fill="#fff"/><path d="M160 539.2h300" stroke="#333" stroke-width="4" fill="none"/><use xlink:href="#a" transform="matrix(1,0,0,1,168,488) translate(85.07499999999999 14.799999999999999)"/><use xlink:href="#q" transform="matrix(1,0,0,1,168,488) translate(65.225 36.4)"/><path d="M922.25 480.76h300v101h-300z" stroke="#333" stroke-width="4" fill="#fff"/><path d="M922.25 539.96h300" stroke="#333" stroke-width="4" fill="none"/><use xlink:href="#a" transform="matrix(1,0,0,1,930.25,488.75631914990913) translate(85.07499999999999 14.799999999999999)"/><use xlink:href="#r" transform="matrix(1,0,0,1,930.25,488.75631914990913) translate(76.175 36.4)"/><path d="M541.13 480h300v101h-300z" stroke="#333" stroke-width="4" fill="#fff"/><path d="M541.13 539.2h300" stroke="#333" stroke-width="4" fill="none"/><use xlink:href="#a" transform="matrix(1,0,0,1,549.125,488) translate(85.07499999999999 14.799999999999999)"/><use xlink:href="#s" transform="matrix(1,0,0,1,549.125,488) translate(86.14999999999999 36.4)"/><path d="M1303.38 480h300v101h-300z" stroke="#333" stroke-width="4" fill="#fff"/><path d="M1303.38 539.2h300" stroke="#333" stroke-width="4" fill="none"/><use xlink:href="#a" transform="matrix(1,0,0,1,1311.375,488) translate(85.07499999999999 14.799999999999999)"/><use xlink:href="#t" transform="matrix(1,0,0,1,1311.375,488) translate(97.1 36.4)"/><path d="M310 476v-55c0-6.63 5.37-12 12-12h547.5c6.63 0 12-5.37 12-12v-34.26" stroke="#333" stroke-width="4" fill="none"/><path d="M312 478h-4v-2.05h4z" stroke="#333" stroke-width=".05" fill="#333"/><path d="M881.5 346.47l4.64 14.27h-9.28z" stroke="#333" stroke-width="4" fill="#fff"/><path d="M1072.25 476.76v-55.38c0-6.63-5.37-12-12-12H893.5c-6.63 0-12-5.37-12-12v-34.64" stroke="#333" stroke-width="4" fill="none"/><path d="M1074.25 478.76h-4v-2.05h4z" stroke="#333" stroke-width=".05" fill="#333"/><path d="M881.5 346.47l4.64 14.27h-9.28z" stroke="#333" stroke-width="4" fill="#fff"/><path d="M691.13 476v-55c0-6.63 5.37-12 12-12H869.5c6.63 0 12-5.37 12-12v-34.26" stroke="#333" stroke-width="4" fill="none"/><path d="M693.13 478h-4v-2.05h4z" stroke="#333" stroke-width=".05" fill="#333"/><path d="M881.5 346.47l4.64 14.27h-9.28z" stroke="#333" stroke-width="4" fill="#fff"/><path d="M1453.38 476v-55c0-6.63-5.38-12-12-12H893.5c-6.63 0-12-5.37-12-12v-34.26" stroke="#333" stroke-width="4" fill="none"/><path d="M1455.38 478h-4v-2.05h4z" stroke="#333" stroke-width=".05" fill="#333"/><path d="M881.5 346.47l4.64 14.27h-9.28zM160 1069.5h300v154H160z" stroke="#333" stroke-width="4" fill="#fff"/><path d="M160 1107.1h300m-300 58.1h300" stroke="#333" stroke-width="4" fill="none"/><use xlink:href="#u" transform="matrix(1,0,0,1,168,1077.5) translate(65.175 14.6)"/><path d="M160 1789.5h300v154H160z" stroke="#333" stroke-width="4" fill="#fff"/><path d="M160 1827.1h300m-300 58.1h300" stroke="#333" stroke-width="4" fill="none"/><use xlink:href="#v" transform="matrix(1,0,0,1,168,1797.5) translate(76.125 14.6)"/><path d="M160 1429.5h300v154H160z" stroke="#333" stroke-width="4" fill="#fff"/><path d="M160 1467.1h300m-300 58.1h300" stroke="#333" stroke-width="4" fill="none"/><use xlink:href="#w" transform="matrix(1,0,0,1,168,1437.5) translate(55.2 14.6)"/><path d="M160 709.5h300v154H160z" stroke="#333" stroke-width="4" fill="#fff"/><path d="M160 747.1h300m-300 58.1h300" stroke="#333" stroke-width="4" fill="none"/><use xlink:href="#x" transform="matrix(1,0,0,1,168,717.5) translate(44.25 14.6)"/><path d="M2457.4 461.5h300v160h-300z" stroke="#333" stroke-width="4" fill="#fff"/><path d="M2457.4 520.7h300" stroke="#333" stroke-width="4" fill="none"/><use xlink:href="#y" transform="matrix(1,0,0,1,2465.40092324515,469.5) translate(100.07499999999999 14.799999999999999)"/><use xlink:href="#z" transform="matrix(1,0,0,1,2465.40092324515,469.5) translate(114.05 36.4)"/><use xlink:href="#A" transform="matrix(1,0,0,1,2469.40092324515,528.7) translate(0 24.5)"/><use xlink:href="#B" transform="matrix(1,0,0,1,2469.40092324515,528.7) translate(69.85 24.5)"/><use xlink:href="#C" transform="matrix(1,0,0,1,2469.40092324515,528.7) translate(0 46.1)"/><use xlink:href="#D" transform="matrix(1,0,0,1,2469.40092324515,528.7) translate(0 67.7)"/><path d="M2074.8 461.5h300v160h-300z" stroke="#333" stroke-width="4" fill="#fff"/><path d="M2074.8 520.7h300" stroke="#333" stroke-width="4" fill="none"/><use xlink:href="#y" transform="matrix(1,0,0,1,2082.8018464903,469.5) translate(100.07499999999999 14.799999999999999)"/><use xlink:href="#E" transform="matrix(1,0,0,1,2082.8018464903,469.5) translate(118.025 36.4)"/><use xlink:href="#F" transform="matrix(1,0,0,1,2086.8018464903,528.7) translate(0 24.5)"/><use xlink:href="#B" transform="matrix(1,0,0,1,2086.8018464903,528.7) translate(83.85000000000001 24.5)"/><use xlink:href="#G" transform="matrix(1,0,0,1,2086.8018464903,528.7) translate(0 46.1)"/><use xlink:href="#H" transform="matrix(1,0,0,1,2086.8018464903,528.7) translate(0 67.7)"/><path d="M3222.6 461.5h300v181h-300z" stroke="#333" stroke-width="4" fill="#fff"/><path d="M3222.6 520.7h300" stroke="#333" stroke-width="4" fill="none"/><use xlink:href="#y" transform="matrix(1,0,0,1,3230.59907675485,469.5) translate(100.07499999999999 14.799999999999999)"/><use xlink:href="#I" transform="matrix(1,0,0,1,3230.59907675485,469.5) translate(99.57499999999999 36.4)"/><use xlink:href="#J" transform="matrix(1,0,0,1,3234.59907675485,528.7) translate(0 24.69999999999999)"/><use xlink:href="#K" transform="matrix(1,0,0,1,3234.59907675485,528.7) translate(88.75000000000001 24.69999999999999)"/><use xlink:href="#L" transform="matrix(1,0,0,1,3234.59907675485,528.7) translate(108.75000000000001 24.69999999999999)"/><use xlink:href="#M" transform="matrix(1,0,0,1,3234.59907675485,528.7) translate(142.75 24.69999999999999)"/><use xlink:href="#N" transform="matrix(1,0,0,1,3234.59907675485,528.7) translate(0 46.29999999999999)"/><use xlink:href="#M" transform="matrix(1,0,0,1,3234.59907675485,528.7) translate(88.9 46.29999999999999)"/><use xlink:href="#O" transform="matrix(1,0,0,1,3234.59907675485,528.7) translate(0 67.89999999999999)"/><use xlink:href="#P" transform="matrix(1,0,0,1,3234.59907675485,528.7) translate(64.95 67.89999999999999)"/><use xlink:href="#Q" transform="matrix(1,0,0,1,3234.59907675485,528.7) translate(0 89.5)"/><use xlink:href="#R" transform="matrix(1,0,0,1,3234.59907675485,528.7) translate(142.95 89.5)"/><path d="M2840 461.5h300v160h-300z" stroke="#333" stroke-width="4" fill="#fff"/><path d="M2840 520.7h300" stroke="#333" stroke-width="4" fill="none"/><use xlink:href="#y" transform="matrix(1,0,0,1,2848,469.5) translate(100.07499999999999 14.799999999999999)"/><use xlink:href="#S" transform="matrix(1,0,0,1,2848,469.5) translate(126.05 36.4)"/><use xlink:href="#J" transform="matrix(1,0,0,1,2852,528.7) translate(0 24.5)"/><use xlink:href="#B" transform="matrix(1,0,0,1,2852,528.7) translate(88.75000000000001 24.5)"/><use xlink:href="#T" transform="matrix(1,0,0,1,2852,528.7) translate(0 46.1)"/><use xlink:href="#B" transform="matrix(1,0,0,1,2852,528.7) translate(93.80000000000001 46.1)"/><use xlink:href="#U" transform="matrix(1,0,0,1,2852,528.7) translate(0 67.7)"/><use xlink:href="#V" transform="matrix(1,0,0,1,2852,528.7) translate(75.95 67.7)"/><path d="M160 2559h300v154H160z" stroke="#333" stroke-width="4" fill="#fff"/><path d="M160 2596.6h300m-300 58.1h300" stroke="#333" stroke-width="4" fill="none"/><use xlink:href="#W" transform="matrix(1,0,0,1,168,2567) translate(43.77500000000002 14.6)"/><path d="M160 3320h300v154H160z" stroke="#333" stroke-width="4" fill="#fff"/><path d="M160 3357.6h300m-300 58.1h300" stroke="#333" stroke-width="4" fill="none"/><use xlink:href="#X" transform="matrix(1,0,0,1,168,3328) translate(54.72500000000001 14.6)"/><path d="M160 2967.84h300v154H160z" stroke="#333" stroke-width="4" fill="#fff"/><path d="M160 3005.44h300m-300 58.1h300" stroke="#333" stroke-width="4" fill="none"/><use xlink:href="#Y" transform="matrix(1,0,0,1,168,2975.837853457773) translate(33.800000000000026 14.6)"/><path d="M160 2199h300v154H160z" stroke="#333" stroke-width="4" fill="#fff"/><path d="M160 2236.6h300m-300 58.1h300" stroke="#333" stroke-width="4" fill="none"/><use xlink:href="#Z" transform="matrix(1,0,0,1,168,2207) translate(22.850000000000023 14.6)"/><path d="M1700 800h300v154h-300z" stroke="#333" stroke-width="4" fill="#fff"/><path d="M1700 837.6h300m-300 58.1h300" stroke="#333" stroke-width="4" fill="none"/><use xlink:href="#aa" transform="matrix(1,0,0,1,1708,808) translate(79.1 14.6)"/><path d="M1700 1160h300v154h-300z" stroke="#333" stroke-width="4" fill="#fff"/><path d="M1700 1197.6h300m-300 58.1h300" stroke="#333" stroke-width="4" fill="none"/><use xlink:href="#ab" transform="matrix(1,0,0,1,1708,1168) translate(106.925 14.6)"/><path d="M1700 1520h300v154h-300z" stroke="#333" stroke-width="4" fill="#fff"/><path d="M1700 1557.6h300m-300 58.1h300" stroke="#333" stroke-width="4" fill="none"/><use xlink:href="#ac" transform="matrix(1,0,0,1,1708,1528) translate(118.05 14.6)"/><path d="M1540 2049h300v154h-300z" stroke="#333" stroke-width="4" fill="#fff"/><path d="M1540 2086.6h300m-300 58.1h300" stroke="#333" stroke-width="4" fill="none"/><use xlink:href="#ad" transform="matrix(1,0,0,1,1548,2056.999999999818) translate(63.375 14.6)"/><path d="M1898.8 2049h300v154h-300z" stroke="#333" stroke-width="4" fill="#fff"/><path d="M1898.8 2086.6h300m-300 58.1h300" stroke="#333" stroke-width="4" fill="none"/><use xlink:href="#ae" transform="matrix(1,0,0,1,1906.8131837603737,2056.999999999818) translate(61.375 14.6)"/><path d="M2640 191h312.98v116H2640z" stroke="#333" stroke-width="4" fill="#fff"/><path d="M2640 250.2h312.98" stroke="#333" stroke-width="4" fill="none"/><use xlink:href="#y" transform="matrix(1,0,0,1,2648,199) translate(106.57499999999999 14.799999999999999)"/><use xlink:href="#af" transform="matrix(1,0,0,1,2648,199) translate(120.55 36.4)"/><use xlink:href="#ag" transform="matrix(1,0,0,1,2652,258.2) translate(0 24.6)"/><use xlink:href="#ah" transform="matrix(1,0,0,1,2652,258.2) translate(58.9 24.6)"/><use xlink:href="#L" transform="matrix(1,0,0,1,2652,258.2) translate(108.80000000000001 24.6)"/><use xlink:href="#ai" transform="matrix(1,0,0,1,2652,258.2) translate(142.8 24.6)"/><use xlink:href="#aj" transform="matrix(1,0,0,1,2652,258.2) translate(163.75 24.6)"/><use xlink:href="#ak" transform="matrix(1,0,0,1,2652,258.2) translate(272.55 24.6)"/><path d="M2636 249H1065.74" stroke="#333" stroke-width="4" fill="none"/><path d="M2638 251h-2.05v-4h2.05z" stroke="#333" stroke-width=".05" fill="#333"/><path d="M1049.47 249l14.27-4.64v9.28z" stroke="#333" stroke-width="4" fill="#fff"/><path d="M2224.8 457.5v-61.25c0-6.63 5.37-12 12-12h547.7c6.62 0 12-5.37 12-12v-40.5" stroke="#333" stroke-width="4" fill="none"/><path d="M2226.8 459.5h-4v-2.05h4z" stroke="#333" stroke-width=".05" fill="#333"/><path d="M2796.5 315.47l4.62 14.27h-9.27z" stroke="#333" stroke-width="4" fill="#fff"/><path d="M2607.4 457.5v-61.25c0-6.63 5.37-12 12-12h165.1c6.62 0 12-5.37 12-12v-40.5" stroke="#333" stroke-width="4" fill="none"/><path d="M2609.4 459.5h-4v-2.05h4z" stroke="#333" stroke-width=".05" fill="#333"/><path d="M2796.5 315.47l4.62 14.27h-9.27z" stroke="#333" stroke-width="4" fill="#fff"/><path d="M2990 457.5v-61.25c0-6.63-5.37-12-12-12h-169.5c-6.64 0-12-5.37-12-12v-40.5" stroke="#333" stroke-width="4" fill="none"/><path d="M2992 459.5h-4v-2.05h4z" stroke="#333" stroke-width=".05" fill="#333"/><path d="M2796.5 315.47l4.62 14.27h-9.27z" stroke="#333" stroke-width="4" fill="#fff"/><path d="M310 1785.5v-25c0-6.63 5.37-12 12-12h988.87c6.63 0 12-5.37 12-12V605.74" stroke="#635dff" stroke-width="4" fill="none"/><path d="M312 1787.5h-4v-2.05h4z" stroke="#635dff" stroke-width=".05" fill="#635dff"/><path d="M1322.87 589.47l4.64 14.27h-9.26z" stroke="#635dff" stroke-width="4" fill="#fff"/><path d="M310 705.5v-99.76" stroke="#635dff" stroke-width="4" fill="none"/><path d="M312 707.5h-4v-2.05h4z" stroke="#635dff" stroke-width=".05" fill="#635dff"/><path d="M310 589.47l4.64 14.27h-9.28z" stroke="#635dff" stroke-width="4" fill="#fff"/><path d="M310 1425.5v-70.74c0-6.63 5.37-12 12-12h649.6c6.62 0 12-5.38 12-12V606.5" stroke="#635dff" stroke-width="4" fill="none"/><path d="M312 1427.5h-4v-2.05h4z" stroke="#635dff" stroke-width=".05" fill="#635dff"/><path d="M983.6 590.23l4.63 14.26h-9.27z" stroke="#635dff" stroke-width="4" fill="#fff"/><path d="M310 1065.5v-25c0-6.63 5.37-12 12-12h277.88c6.63 0 12-5.37 12-12V605.74" stroke="#635dff" stroke-width="4" fill="none"/><path d="M312 1067.5h-4v-2.05h4z" stroke="#635dff" stroke-width=".05" fill="#635dff"/><path d="M611.88 589.47l4.64 14.27h-9.27z" stroke="#635dff" stroke-width="4" fill="#fff"/><path d="M1696 877h-167.25c-6.63 0-12-5.37-12-12V605.74" stroke="#008a0e" stroke-width="4" fill="none"/><path d="M1698 879h-2.05v-4h2.05z" stroke="#008a0e" stroke-width=".05" fill="#008a0e"/><path d="M1516.75 589.47l4.64 14.27h-9.28z" stroke="#008a0e" stroke-width="4" fill="#fff"/><path d="M1850 1156v-6c0-6.63-5.37-12-12-12h-237.9c-6.64 0-12-5.37-12-12V605.74" stroke="#008573" stroke-width="4" fill="none"/><path d="M1852 1158h-4v-2.05h4z" stroke="#008573" stroke-width=".05" fill="#008573"/><path d="M1588.1 589.47l4.63 14.27h-9.28z" stroke="#008573" stroke-width="4" fill="#fff"/><path d="M1850 1516v-6c0-6.63-5.37-12-12-12h-372.63c-6.62 0-12-5.37-12-12V605.74" stroke="#d916a8" stroke-width="4" fill="none"/><path d="M1852 1518h-4v-2.05h4z" stroke="#d916a8" stroke-width=".05" fill="#d916a8"/><path d="M1453.38 589.47l4.63 14.27h-9.26z" stroke="#d916a8" stroke-width="4" fill="#fff"/><path d="M2048.8 2045V542.5c0-6.63-5.36-12-12-12h-408.7" stroke="#e81313" stroke-width="4" fill="none"/><path d="M2050.8 2047h-4v-2.05h4z" stroke="#e81313" stroke-width=".05" fill="#e81313"/><path d="M1611.85 530.5l14.26-4.64v9.28z" stroke="#e81313" stroke-width="4" fill="#fff"/><path d="M1690 2045v-76.64c0-6.63 5.37-12 12-12h344.8" stroke="#e81313" stroke-width="4" fill="none"/><path d="M1692 2047h-4v-2.05h4z" stroke="#e81313" stroke-width=".05" fill="#e81313"/><path d="M2046.76 1956.36h2.05" stroke="#e81313" stroke-width="4" fill="none"/><path d="M3372.6 457.5v-61.25c0-6.63-5.37-12-12-12h-552.1c-6.64 0-12-5.37-12-12v-40.5" stroke="#333" stroke-width="4" fill="none"/><path d="M3374.6 459.5h-4v-2.05h4z" stroke="#333" stroke-width=".05" fill="#333"/><path d="M2796.5 315.47l4.62 14.27h-9.27z" stroke="#333" stroke-width="4" fill="#fff"/><path d="M310 2195v-25c0-6.63-5.37-12-12-12H72c-6.63 0-12-5.37-12-12V542.5c0-6.63 5.37-12 12-12h63.26" stroke="#fc9432" stroke-width="4" fill="none"/><path d="M312 2197h-4v-2.05h4z" stroke="#fc9432" stroke-width=".05" fill="#fc9432"/><path d="M151.53 530.5l-14.27 4.64v-9.28z" stroke="#fc9432" stroke-width="4" fill="#fff"/><path d="M310 2555v-43c0-6.63 5.37-12 12-12h428.7c6.64 0 12-5.37 12-12V605.74" stroke="#fc9432" stroke-width="4" fill="none"/><path d="M312 2557h-4v-2.05h4z" stroke="#fc9432" stroke-width=".05" fill="#fc9432"/><path d="M762.7 589.47l4.65 14.27h-9.27z" stroke="#fc9432" stroke-width="4" fill="#fff"/><path d="M310 2963.84V2862c0-6.63 5.37-12 12-12h828.95c6.63 0 12-5.37 12-12V606.5" stroke="#fc9432" stroke-width="4" fill="none"/><path d="M312 2965.84h-4v-2.05h4z" stroke="#fc9432" stroke-width=".05" fill="#fc9432"/><path d="M1162.95 590.23l4.64 14.26h-9.28z" stroke="#fc9432" stroke-width="4" fill="#fff"/><path d="M310 3316v-84c0-6.63 5.37-12 12-12h1051c6.64 0 12-5.37 12-12V605.74" stroke="#fc9432" stroke-width="4" fill="none"/><path d="M312 3318h-4v-2.05h4z" stroke="#fc9432" stroke-width=".05" fill="#fc9432"/><path d="M1385 589.47l4.64 14.27h-9.27z" stroke="#fc9432" stroke-width="4" fill="#fff"/><path d="M2004 877h907.4c6.63 0 12-5.37 12-12V646.24" stroke="#008a0e" stroke-width="4" fill="none"/><path d="M2004.05 879H2002v-4h2.05z" stroke="#008a0e" stroke-width=".05" fill="#008a0e"/><path d="M2923.4 629.97l4.64 14.27h-9.27z" stroke="#008a0e" stroke-width="4" fill="#fff"/><path d="M2004 1237h974c6.63 0 12-5.37 12-12V646.24" stroke="#008573" stroke-width="4" fill="none"/><path d="M2004.05 1239H2002v-4h2.05z" stroke="#008573" stroke-width=".05" fill="#008573"/><path d="M2990 629.97l4.64 14.27h-9.28z" stroke="#008573" stroke-width="4" fill="#fff"/><path d="M2004 1597h1048.63c6.62 0 12-5.37 12-12V646.24" stroke="#d916a8" stroke-width="4" fill="none"/><path d="M2004.05 1599H2002v-4h2.05z" stroke="#d916a8" stroke-width=".05" fill="#d916a8"/><path d="M3064.63 629.97l4.63 14.27H3060z" stroke="#d916a8" stroke-width="4" fill="#fff"/><path d="M2202.8 2126h1157.8c6.63 0 12-5.37 12-12V667.24" stroke="#e81313" stroke-width="4" fill="none"/><path d="M2202.86 2128h-2.05v-4h2.06z" stroke="#e81313" stroke-width=".05" fill="#e81313"/><path d="M3372.6 650.97l4.63 14.27h-9.27z" stroke="#e81313" stroke-width="4" fill="#fff"/><path d="M1690 2207v26c0 6.63 5.37 12 12 12h1101.72c6.63 0 12-5.37 12-12v-105" stroke="#e81313" stroke-width="4" fill="none"/><path d="M1692 2207.05h-4V2205h4z" stroke="#e81313" stroke-width=".05" fill="#e81313"/><path d="M2815.72 2128.05V2126" stroke="#e81313" stroke-width="4" fill="none"/><path d="M464 2636h2653c6.63 0 12-5.37 12-12V646.24" stroke="#fc9432" stroke-width="4" fill="none"/><path d="M464.05 2638H462v-4h2.05z" stroke="#fc9432" stroke-width=".05" fill="#fc9432"/><path d="M3129 629.97l4.63 14.27h-9.27z" stroke="#fc9432" stroke-width="4" fill="#fff"/><path d="M464 3397h1329.65c.55 0 1 .45 1 1s.45 1 1 1H3115.3c6.63 0 12-5.37 12-12v-822.23" stroke="#fc9432" stroke-width="4" fill="none"/><path d="M464.05 3399H462v-4h2.05z" stroke="#fc9432" stroke-width=".05" fill="#fc9432"/><path d="M3126.95 2564.47h2.05M464 3044.84h1330.23c.23 0 .42-.2.42-.43 0-.22.2-.4.42-.4H3125.3" stroke="#fc9432" stroke-width="4" fill="none"/><path d="M464.05 3046.84H462v-4h2.05z" stroke="#fc9432" stroke-width=".05" fill="#fc9432"/><path d="M3125.25 3044h2.05M464 2276h2641.86c.24 0 .44.2.44.45 0 .24.2.44.45.44H3127" stroke="#fc9432" stroke-width="4" fill="none"/><path d="M464.05 2278H462v-4h2.05z" stroke="#fc9432" stroke-width=".05" fill="#fc9432"/><path d="M3126.95 2276.9h2.05" stroke="#fc9432" stroke-width="4" fill="none"/><path d="M310 705.5v-28c0-6.63 5.37-12 12-12h1890.8c6.63 0 12-5.37 12-12v-7.26" stroke="#635dff" stroke-width="4" fill="none"/><path d="M312 707.5h-4v-2.05h4z" stroke="#635dff" stroke-width=".05" fill="#635dff"/><path d="M2224.8 629.97l4.64 14.27h-9.27z" stroke="#635dff" stroke-width="4" fill="#fff"/><path d="M310 705.5v-28c0-6.63 5.37-12 12-12h2273.4c6.63 0 12-5.37 12-12v-7.26" stroke="#635dff" stroke-width="4" fill="none"/><path d="M312 707.5h-4v-2.05h4z" stroke="#635dff" stroke-width=".05" fill="#635dff"/><path d="M2607.4 629.97l4.64 14.27h-9.27z" stroke="#635dff" stroke-width="4" fill="#fff"/><path d="M310 705.5v-28c0-6.63 5.37-12 12-12h2532.27c6.62 0 12-5.37 12-12v-7.26" stroke="#635dff" stroke-width="4" fill="none"/><path d="M312 707.5h-4v-2.05h4z" stroke="#635dff" stroke-width=".05" fill="#635dff"/><path d="M2866.27 629.97l4.63 14.27h-9.27z" stroke="#635dff" stroke-width="4" fill="#fff"/><path d="M464 1146.5h409.57c6.63 0 12-5.37 12-12v-467" stroke="#635dff" stroke-width="4" fill="none"/><path d="M464.05 1148.5H462v-4h2.05z" stroke="#635dff" stroke-width=".05" fill="#635dff"/><path d="M885.57 667.55v-2.05M464 1506.5h409.57c6.63 0 12-5.37 12-12v-346.33" stroke="#635dff" stroke-width="4" fill="none"/><path d="M464.05 1508.5H462v-4h2.05z" stroke="#635dff" stroke-width=".05" fill="#635dff"/><path d="M885.57 1148.22v-2.05M464 1866.5h409.57c6.63 0 12-5.37 12-12v-346.46" stroke="#635dff" stroke-width="4" fill="none"/><path d="M464.05 1868.5H462v-4h2.05z" stroke="#635dff" stroke-width=".05" fill="#635dff"/><path d="M885.57 1508.1v-2.06" stroke="#635dff" stroke-width="4" fill="none"/><defs><path fill="#333" d="M156-25L96-89v-11l60-65h29v5l-59 66 60 64v5h-30zm-82 0L15-89v-11l59-65h29v5L44-94l59 64v5H74" id="al"/><path fill="#333" d="M135-143c-3-34-86-38-87 0 15 53 115 12 119 90S17 21 10-45l28-5c4 36 97 45 98 0-10-56-113-15-118-90-4-57 82-63 122-42 12 7 21 19 24 35" id="am"/><path fill="#333" d="M96-169c-40 0-48 33-48 73s9 75 48 75c24 0 41-14 43-38l32 2c-6 37-31 61-74 61-59 0-76-41-82-99-10-93 101-131 147-64 4 7 5 14 7 22l-32 3c-4-21-16-35-41-35" id="an"/><path fill="#333" d="M106-169C34-169 62-67 57 0H25v-261h32l-1 103c12-21 28-36 61-36 89 0 53 116 60 194h-32v-121c2-32-8-49-39-48" id="ao"/><path fill="#333" d="M117-194c89-4 53 116 60 194h-32v-121c0-31-8-49-39-48C34-167 62-67 57 0H25l-1-190h30c1 10-1 24 2 32 11-22 29-35 61-36" id="ap"/><path fill="#333" d="M24-231v-30h32v30H24zM24 0v-190h32V0H24" id="aq"/><path fill="#333" d="M59-47c-2 24 18 29 38 22v24C64 9 27 4 27-40v-127H5v-23h24l9-43h21v43h35v23H59v120" id="ar"/><path fill="#333" d="M100-194c63 0 86 42 84 106H49c0 40 14 67 53 68 26 1 43-12 49-29l28 8c-11 28-37 45-77 45C44 4 14-33 15-96c1-61 26-98 85-98zm52 81c6-60-76-77-97-28-3 7-6 17-6 28h103" id="as"/><path fill="#333" d="M24 0v-261h32V0H24" id="at"/><path fill="#333" d="M126-25H97v-5l59-64-59-66v-5h29l60 65v11zm-82 0H15v-5l59-64-59-66v-5h29l59 65v11" id="au"/><g id="a"><use transform="matrix(0.05,0,0,0.05,0,0)" xlink:href="#al"/><use transform="matrix(0.05,0,0,0.05,10,0)" xlink:href="#am"/><use transform="matrix(0.05,0,0,0.05,19,0)" xlink:href="#an"/><use transform="matrix(0.05,0,0,0.05,28,0)" xlink:href="#ao"/><use transform="matrix(0.05,0,0,0.05,38,0)" xlink:href="#ap"/><use transform="matrix(0.05,0,0,0.05,48,0)" xlink:href="#aq"/><use transform="matrix(0.05,0,0,0.05,51.95,0)" xlink:href="#ar"/><use transform="matrix(0.05,0,0,0.05,56.95,0)" xlink:href="#ar"/><use transform="matrix(0.05,0,0,0.05,61.95,0)" xlink:href="#am"/><use transform="matrix(0.05,0,0,0.05,70.95,0)" xlink:href="#ar"/><use transform="matrix(0.05,0,0,0.05,75.95,0)" xlink:href="#as"/><use transform="matrix(0.05,0,0,0.05,85.95,0)" xlink:href="#at"/><use transform="matrix(0.05,0,0,0.05,89.9,0)" xlink:href="#at"/><use transform="matrix(0.05,0,0,0.05,93.85000000000001,0)" xlink:href="#as"/><use transform="matrix(0.05,0,0,0.05,103.85000000000001,0)" xlink:href="#au"/></g><path fill="#333" d="M24 0v-248h52V0H24" id="av"/><path fill="#333" d="M24-248c120-7 223 5 221 122C244-46 201 0 124 0H24v-248zM76-40c74 7 117-18 117-86 0-67-45-88-117-82v168" id="aw"/><path fill="#333" d="M25-224v-37h50v37H25zM25 0v-190h50V0H25" id="ax"/><path fill="#333" d="M190-63c-7 42-38 67-86 67-59 0-84-38-90-98-12-110 154-137 174-36l-49 2c-2-19-15-32-35-32-30 0-35 28-38 64-6 74 65 87 74 30" id="ay"/><path fill="#333" d="M115-3C79 11 28 4 28-45v-112H4v-33h27l15-45h31v45h36v33H77v99c-1 23 16 31 38 25v30" id="az"/><path fill="#333" d="M110-194c64 0 96 36 96 99 0 64-35 99-97 99-61 0-95-36-95-99 0-62 34-99 96-99zm-1 164c35 0 45-28 45-65 0-40-10-65-43-65-34 0-45 26-45 65 0 36 10 65 43 65" id="aA"/><path fill="#333" d="M135-194c87-1 58 113 63 194h-50c-7-57 23-157-34-157-59 0-34 97-39 157H25l-1-190h47c2 12-1 28 3 38 12-26 28-41 61-42" id="aB"/><path fill="#333" d="M133-34C117-15 103 5 69 4 32 3 11-16 11-54c-1-60 55-63 116-61 1-26-3-47-28-47-18 1-26 9-28 27l-52-2c7-38 36-58 82-57s74 22 75 68l1 82c-1 14 12 18 25 15v27c-30 8-71 5-69-32zm-48 3c29 0 43-24 42-57-32 0-66-3-65 30 0 17 8 27 23 27" id="aC"/><path fill="#333" d="M135-150c-39-12-60 13-60 57V0H25l-1-190h47c2 13-1 29 3 40 6-28 27-53 61-41v41" id="aD"/><path fill="#333" d="M123 10C108 53 80 86 19 72V37c35 8 53-11 59-39L3-190h52l48 148c12-52 28-100 44-148h51" id="aE"/><g id="b"><use transform="matrix(0.05,0,0,0.05,0,0)" xlink:href="#av"/><use transform="matrix(0.05,0,0,0.05,5,0)" xlink:href="#aw"/><use transform="matrix(0.05,0,0,0.05,17.950000000000003,0)" xlink:href="#ax"/><use transform="matrix(0.05,0,0,0.05,22.950000000000003,0)" xlink:href="#ay"/><use transform="matrix(0.05,0,0,0.05,32.95,0)" xlink:href="#az"/><use transform="matrix(0.05,0,0,0.05,38.900000000000006,0)" xlink:href="#ax"/><use transform="matrix(0.05,0,0,0.05,43.900000000000006,0)" xlink:href="#aA"/><use transform="matrix(0.05,0,0,0.05,54.85,0)" xlink:href="#aB"/><use transform="matrix(0.05,0,0,0.05,65.80000000000001,0)" xlink:href="#aC"/><use transform="matrix(0.05,0,0,0.05,75.80000000000001,0)" xlink:href="#aD"/><use transform="matrix(0.05,0,0,0.05,82.80000000000001,0)" xlink:href="#aE"/></g><path d="M115-194c53 0 69 39 70 98 0 66-23 100-70 100C84 3 66-7 56-30L54 0H23l1-261h32v101c10-23 28-34 59-34zm-8 174c40 0 45-34 45-75 0-40-5-75-45-74-42 0-51 32-51 76 0 43 10 73 51 73" id="aF"/><path d="M100-194c62-1 85 37 85 99 1 63-27 99-86 99S16-35 15-95c0-66 28-99 85-99zM99-20c44 1 53-31 53-75 0-43-8-75-51-75s-53 32-53 75 10 74 51 75" id="aG"/><path d="M24 0v-261h32V0H24" id="aH"/><g id="c"><use transform="matrix(0.05925925925925927,0,0,0.05925925925925927,0,0)" xlink:href="#aF"/><use transform="matrix(0.05925925925925927,0,0,0.05925925925925927,11.851851851851853,0)" xlink:href="#aG"/><use transform="matrix(0.05925925925925927,0,0,0.05925925925925927,23.703703703703706,0)" xlink:href="#aG"/><use transform="matrix(0.05925925925925927,0,0,0.05925925925925927,35.55555555555556,0)" xlink:href="#aH"/></g><path d="M135-143c-3-34-86-38-87 0 15 53 115 12 119 90S17 21 10-45l28-5c4 36 97 45 98 0-10-56-113-15-118-90-4-57 82-63 122-42 12 7 21 19 24 35" id="aI"/><path d="M100-194c63 0 86 42 84 106H49c0 40 14 67 53 68 26 1 43-12 49-29l28 8c-11 28-37 45-77 45C44 4 14-33 15-96c1-61 26-98 85-98zm52 81c6-60-76-77-97-28-3 7-6 17-6 28h103" id="aJ"/><path d="M141-36C126-15 110 5 73 4 37 3 15-17 15-53c-1-64 63-63 125-63 3-35-9-54-41-54-24 1-41 7-42 31l-33-3c5-37 33-52 76-52 45 0 72 20 72 64v82c-1 20 7 32 28 27v20c-31 9-61-2-59-35zM48-53c0 20 12 33 32 33 41-3 63-29 60-74-43 2-92-5-92 41" id="aK"/><path d="M114-163C36-179 61-72 57 0H25l-1-190h30c1 12-1 29 2 39 6-27 23-49 58-41v29" id="aL"/><path d="M96-169c-40 0-48 33-48 73s9 75 48 75c24 0 41-14 43-38l32 2c-6 37-31 61-74 61-59 0-76-41-82-99-10-93 101-131 147-64 4 7 5 14 7 22l-32 3c-4-21-16-35-41-35" id="aM"/><path d="M106-169C34-169 62-67 57 0H25v-261h32l-1 103c12-21 28-36 61-36 89 0 53 116 60 194h-32v-121c2-32-8-49-39-48" id="aN"/><path d="M87 75C49 33 22-17 22-94c0-76 28-126 65-167h31c-38 41-64 92-64 168S80 34 118 75H87" id="aO"/><path d="M24-231v-30h32v30H24zM24 0v-190h32V0H24" id="aP"/><path d="M59-47c-2 24 18 29 38 22v24C64 9 27 4 27-40v-127H5v-23h24l9-43h21v43h35v23H59v120" id="aQ"/><path d="M210-169c-67 3-38 105-44 169h-31v-121c0-29-5-50-35-48C34-165 62-65 56 0H25l-1-190h30c1 10-1 24 2 32 10-44 99-50 107 0 11-21 27-35 58-36 85-2 47 119 55 194h-31v-121c0-29-5-49-35-48" id="aR"/><g id="d"><use transform="matrix(0.05925925925925927,0,0,0.05925925925925927,0,0)" xlink:href="#aI"/><use transform="matrix(0.05925925925925927,0,0,0.05925925925925927,10.666666666666668,0)" xlink:href="#aJ"/><use transform="matrix(0.05925925925925927,0,0,0.05925925925925927,22.51851851851852,0)" xlink:href="#aK"/><use transform="matrix(0.05925925925925927,0,0,0.05925925925925927,34.370370370370374,0)" xlink:href="#aL"/><use transform="matrix(0.05925925925925927,0,0,0.05925925925925927,41.422222222222224,0)" xlink:href="#aM"/><use transform="matrix(0.05925925925925927,0,0,0.05925925925925927,52.08888888888889,0)" xlink:href="#aN"/><use transform="matrix(0.05925925925925927,0,0,0.05925925925925927,63.940740740740736,0)" xlink:href="#aO"/><use transform="matrix(0.05925925925925927,0,0,0.05925925925925927,70.9925925925926,0)" xlink:href="#aP"/><use transform="matrix(0.05925925925925927,0,0,0.05925925925925927,75.67407407407408,0)" xlink:href="#aQ"/><use transform="matrix(0.05925925925925927,0,0,0.05925925925925927,81.60000000000001,0)" xlink:href="#aJ"/><use transform="matrix(0.05925925925925927,0,0,0.05925925925925927,93.45185185185186,0)" xlink:href="#aR"/></g><path d="M33-261c38 41 65 92 65 168S71 34 33 75H2C39 34 66-17 66-93S39-220 2-261h31" id="aS"/><g id="e"><use transform="matrix(0.05925925925925927,0,0,0.05925925925925927,0,0)" xlink:href="#aJ"/><use transform="matrix(0.05925925925925927,0,0,0.05925925925925927,11.851851851851853,0)" xlink:href="#aS"/></g><path d="M117-194c89-4 53 116 60 194h-32v-121c0-31-8-49-39-48C34-167 62-67 57 0H25l-1-190h30c1 10-1 24 2 32 11-22 29-35 61-36" id="aT"/><g id="f"><use transform="matrix(0.05925925925925927,0,0,0.05925925925925927,0,0)" xlink:href="#aP"/><use transform="matrix(0.05925925925925927,0,0,0.05925925925925927,4.681481481481482,0)" xlink:href="#aT"/><use transform="matrix(0.05925925925925927,0,0,0.05925925925925927,16.533333333333335,0)" xlink:href="#aI"/><use transform="matrix(0.05925925925925927,0,0,0.05925925925925927,27.200000000000003,0)" xlink:href="#aJ"/><use transform="matrix(0.05925925925925927,0,0,0.05925925925925927,39.05185185185186,0)" xlink:href="#aL"/><use transform="matrix(0.05925925925925927,0,0,0.05925925925925927,46.10370370370371,0)" xlink:href="#aQ"/><use transform="matrix(0.05925925925925927,0,0,0.05925925925925927,52.02962962962963,0)" xlink:href="#aO"/><use transform="matrix(0.05925925925925927,0,0,0.05925925925925927,59.08148148148148,0)" xlink:href="#aP"/><use transform="matrix(0.05925925925925927,0,0,0.05925925925925927,63.76296296296297,0)" xlink:href="#aQ"/><use transform="matrix(0.05925925925925927,0,0,0.05925925925925927,69.6888888888889,0)" xlink:href="#aJ"/><use transform="matrix(0.05925925925925927,0,0,0.05925925925925927,81.54074074074074,0)" xlink:href="#aR"/></g><path d="M85-194c31 0 48 13 60 33l-1-100h32l1 261h-30c-2-10 0-23-3-31C134-8 116 4 85 4 32 4 16-35 15-94c0-66 23-100 70-100zm9 24c-40 0-46 34-46 75 0 40 6 74 45 74 42 0 51-32 51-76 0-42-9-74-50-73" id="aU"/><g id="g"><use transform="matrix(0.05925925925925927,0,0,0.05925925925925927,0,0)" xlink:href="#aU"/><use transform="matrix(0.05925925925925927,0,0,0.05925925925925927,11.851851851851853,0)" xlink:href="#aJ"/><use transform="matrix(0.05925925925925927,0,0,0.05925925925925927,23.703703703703706,0)" xlink:href="#aH"/><use transform="matrix(0.05925925925925927,0,0,0.05925925925925927,28.385185185185186,0)" xlink:href="#aJ"/><use transform="matrix(0.05925925925925927,0,0,0.05925925925925927,40.23703703703704,0)" xlink:href="#aQ"/><use transform="matrix(0.05925925925925927,0,0,0.05925925925925927,46.162962962962965,0)" xlink:href="#aJ"/><use transform="matrix(0.05925925925925927,0,0,0.05925925925925927,58.01481481481482,0)" xlink:href="#aO"/><use transform="matrix(0.05925925925925927,0,0,0.05925925925925927,65.06666666666668,0)" xlink:href="#aP"/><use transform="matrix(0.05925925925925927,0,0,0.05925925925925927,69.74814814814816,0)" xlink:href="#aQ"/><use transform="matrix(0.05925925925925927,0,0,0.05925925925925927,75.67407407407408,0)" xlink:href="#aJ"/><use transform="matrix(0.05925925925925927,0,0,0.05925925925925927,87.52592592592593,0)" xlink:href="#aR"/></g><path d="M108 0H70L1-190h34L89-25l56-165h34" id="aV"/><g id="h"><use transform="matrix(0.05925925925925927,0,0,0.05925925925925927,0,0)" xlink:href="#aV"/><use transform="matrix(0.05925925925925927,0,0,0.05925925925925927,10.666666666666668,0)" xlink:href="#aG"/><use transform="matrix(0.05925925925925927,0,0,0.05925925925925927,22.51851851851852,0)" xlink:href="#aP"/><use transform="matrix(0.05925925925925927,0,0,0.05925925925925927,27.200000000000003,0)" xlink:href="#aU"/></g><path d="M115-194c55 1 70 41 70 98S169 2 115 4C84 4 66-9 55-30l1 105H24l-1-265h31l2 30c10-21 28-34 59-34zm-8 174c40 0 45-34 45-75s-6-73-45-74c-42 0-51 32-51 76 0 43 10 73 51 73" id="aW"/><g id="i"><use transform="matrix(0.05925925925925927,0,0,0.05925925925925927,0,0)" xlink:href="#aW"/><use transform="matrix(0.05925925925925927,0,0,0.05925925925925927,11.851851851851853,0)" xlink:href="#aL"/><use transform="matrix(0.05925925925925927,0,0,0.05925925925925927,18.903703703703705,0)" xlink:href="#aP"/><use transform="matrix(0.05925925925925927,0,0,0.05925925925925927,23.58518518518519,0)" xlink:href="#aT"/><use transform="matrix(0.05925925925925927,0,0,0.05925925925925927,35.437037037037044,0)" xlink:href="#aQ"/><use transform="matrix(0.05925925925925927,0,0,0.05925925925925927,41.36296296296297,0)" xlink:href="#aO"/><use transform="matrix(0.05925925925925927,0,0,0.05925925925925927,48.41481481481482,0)" xlink:href="#aS"/></g><path fill="#a9afb8" d="M199 0l-22-63H83L61 0H9l90-248h61L250 0h-51zm-33-102l-36-108c-10 38-24 72-36 108h72" id="aX"/><path fill="#a9afb8" d="M25 0v-261h50V0H25" id="aY"/><path fill="#a9afb8" d="M195-6C206 82 75 100 31 46c-4-6-6-13-8-21l49-6c3 16 16 24 34 25 40 0 42-37 40-79-11 22-30 35-61 35-53 0-70-43-70-97 0-56 18-96 73-97 30 0 46 14 59 34l2-30h47zm-90-29c32 0 41-27 41-63 0-35-9-62-40-62-32 0-39 29-40 63 0 36 9 62 39 62" id="aZ"/><path fill="#a9afb8" d="M110-194c64 0 96 36 96 99 0 64-35 99-97 99-61 0-95-36-95-99 0-62 34-99 96-99zm-1 164c35 0 45-28 45-65 0-40-10-65-43-65-34 0-45 26-45 65 0 36 10 65 43 65" id="ba"/><path fill="#a9afb8" d="M24-248c120-7 223 5 221 122C244-46 201 0 124 0H24v-248zM76-40c74 7 117-18 117-86 0-67-45-88-117-82v168" id="bb"/><path fill="#a9afb8" d="M133-34C117-15 103 5 69 4 32 3 11-16 11-54c-1-60 55-63 116-61 1-26-3-47-28-47-18 1-26 9-28 27l-52-2c7-38 36-58 82-57s74 22 75 68l1 82c-1 14 12 18 25 15v27c-30 8-71 5-69-32zm-48 3c29 0 43-24 42-57-32 0-66-3-65 30 0 17 8 27 23 27" id="bc"/><path fill="#a9afb8" d="M115-3C79 11 28 4 28-45v-112H4v-33h27l15-45h31v45h36v33H77v99c-1 23 16 31 38 25v30" id="bd"/><path fill="#a9afb8" d="M14-72v-43h91v43H14" id="be"/><path fill="#a9afb8" d="M195 0l-88-114-31 24V0H24v-248h52v113l112-113h60L142-143 257 0h-62" id="bf"/><path fill="#a9afb8" d="M137-138c1-29-70-34-71-4 15 46 118 7 119 86 1 83-164 76-172 9l43-7c4 19 20 25 44 25 33 8 57-30 24-41C81-84 22-81 20-136c-2-80 154-74 161-7" id="bg"/><path fill="#a9afb8" d="M185-48c-13 30-37 53-82 52C43 2 14-33 14-96s30-98 90-98c62 0 83 45 84 108H66c0 31 8 55 39 56 18 0 30-7 34-22zm-45-69c5-46-57-63-70-21-2 6-4 13-4 21h74" id="bh"/><path fill="#a9afb8" d="M135-194c87-1 58 113 63 194h-50c-7-57 23-157-34-157-59 0-34 97-39 157H25l-1-190h47c2 12-1 28 3 38 12-26 28-41 61-42" id="bi"/><g id="j"><use transform="matrix(0.0728395061728395,0,0,0.0728395061728395,0,0)" xlink:href="#aX"/><use transform="matrix(0.0728395061728395,0,0,0.0728395061728395,18.86543209876543,0)" xlink:href="#aY"/><use transform="matrix(0.0728395061728395,0,0,0.0728395061728395,26.14938271604938,0)" xlink:href="#aZ"/><use transform="matrix(0.0728395061728395,0,0,0.0728395061728395,42.10123456790124,0)" xlink:href="#ba"/><use transform="matrix(0.0728395061728395,0,0,0.0728395061728395,58.05308641975308,0)" xlink:href="#bb"/><use transform="matrix(0.0728395061728395,0,0,0.0728395061728395,76.91851851851851,0)" xlink:href="#bc"/><use transform="matrix(0.0728395061728395,0,0,0.0728395061728395,91.4864197530864,0)" xlink:href="#bd"/><use transform="matrix(0.0728395061728395,0,0,0.0728395061728395,100.15432098765432,0)" xlink:href="#be"/><use transform="matrix(0.0728395061728395,0,0,0.0728395061728395,108.82222222222222,0)" xlink:href="#bf"/><use transform="matrix(0.0728395061728395,0,0,0.0728395061728395,127.68765432098768,0)" xlink:href="#aY"/><use transform="matrix(0.0728395061728395,0,0,0.0728395061728395,134.9716049382716,0)" xlink:href="#bc"/><use transform="matrix(0.0728395061728395,0,0,0.0728395061728395,149.5395061728395,0)" xlink:href="#bg"/><use transform="matrix(0.0728395061728395,0,0,0.0728395061728395,164.1074074074074,0)" xlink:href="#bg"/><use transform="matrix(0.0728395061728395,0,0,0.0728395061728395,178.6753086419753,0)" xlink:href="#bh"/><use transform="matrix(0.0728395061728395,0,0,0.0728395061728395,193.2432098765432,0)" xlink:href="#bi"/></g><path fill="#a9afb8" d="M143 4C61 4 22-44 18-125c-5-107 100-154 193-111 17 8 29 25 37 43l-32 9c-13-25-37-40-76-40-61 0-88 39-88 99 0 61 29 100 91 101 35 0 62-11 79-27v-45h-74v-28h105v86C228-13 192 4 143 4" id="bj"/><path fill="#a9afb8" d="M114-163C36-179 61-72 57 0H25l-1-190h30c1 12-1 29 2 39 6-27 23-49 58-41v29" id="bk"/><path fill="#a9afb8" d="M84 4C-5 8 30-112 23-190h32v120c0 31 7 50 39 49 72-2 45-101 50-169h31l1 190h-30c-1-10 1-25-2-33-11 22-28 36-60 37" id="bl"/><path fill="#a9afb8" d="M115-194c55 1 70 41 70 98S169 2 115 4C84 4 66-9 55-30l1 105H24l-1-265h31l2 30c10-21 28-34 59-34zm-8 174c40 0 45-34 45-75s-6-73-45-74c-42 0-51 32-51 76 0 43 10 73 51 73" id="bm"/><path fill="#a9afb8" d="M100-194c63 0 86 42 84 106H49c0 40 14 67 53 68 26 1 43-12 49-29l28 8c-11 28-37 45-77 45C44 4 14-33 15-96c1-61 26-98 85-98zm52 81c6-60-76-77-97-28-3 7-6 17-6 28h103" id="bn"/><g id="k"><use transform="matrix(0.04248971193415638,0,0,0.04248971193415638,0,0)" xlink:href="#bj"/><use transform="matrix(0.04248971193415638,0,0,0.04248971193415638,11.897119341563785,0)" xlink:href="#bk"/><use transform="matrix(0.04248971193415638,0,0,0.04248971193415638,16.953395061728394,0)" xlink:href="#bl"/><use transform="matrix(0.04248971193415638,0,0,0.04248971193415638,25.45133744855967,0)" xlink:href="#bm"/><use transform="matrix(0.04248971193415638,0,0,0.04248971193415638,33.949279835390946,0)" xlink:href="#bm"/><use transform="matrix(0.04248971193415638,0,0,0.04248971193415638,42.44722222222222,0)" xlink:href="#bn"/></g><path fill="#a9afb8" d="M155-56V0h-30v-56H8v-25l114-167h33v167h35v25h-35zm-30-156c-27 46-58 90-88 131h88v-131" id="bo"/><use transform="matrix(0.04248971193415638,0,0,0.04248971193415638,0,0)" xlink:href="#bo" id="l"/><path fill="#a9afb8" d="M32 76v-337h29V76H32" id="bp"/><use transform="matrix(0.04248971193415638,0,0,0.04248971193415638,0,0)" xlink:href="#bp" id="m"/><path fill="#a9afb8" d="M205 0l-28-72H64L36 0H1l101-248h38L239 0h-34zm-38-99l-47-123c-12 45-31 82-46 123h93" id="bq"/><path fill="#a9afb8" d="M24-231v-30h32v30H24zM24 0v-190h32V0H24" id="br"/><path fill="#a9afb8" d="M24 0v-261h32V0H24" id="bs"/><g id="n"><use transform="matrix(0.04248971193415638,0,0,0.04248971193415638,0,0)" xlink:href="#bq"/><use transform="matrix(0.04248971193415638,0,0,0.04248971193415638,10.19753086419753,0)" xlink:href="#bm"/><use transform="matrix(0.04248971193415638,0,0,0.04248971193415638,18.695473251028805,0)" xlink:href="#bk"/><use transform="matrix(0.04248971193415638,0,0,0.04248971193415638,23.751748971193415,0)" xlink:href="#br"/><use transform="matrix(0.04248971193415638,0,0,0.04248971193415638,27.10843621399177,0)" xlink:href="#bs"/></g><path fill="#a9afb8" d="M27 0v-27h64v-190l-56 39v-29l58-41h29v221h61V0H27" id="bt"/><path fill="#a9afb8" d="M101-251c68 0 85 55 85 127S166 4 100 4C33 4 14-52 14-124c0-73 17-127 87-127zm-1 229c47 0 54-49 54-102s-4-102-53-102c-51 0-55 48-55 102 0 53 5 102 54 102" id="bu"/><path fill="#a9afb8" d="M68-38c1 34 0 65-14 84H32c9-13 17-26 17-46H33v-38h35" id="bv"/><g id="o"><use transform="matrix(0.04248971193415638,0,0,0.04248971193415638,0,0)" xlink:href="#bt"/><use transform="matrix(0.04248971193415638,0,0,0.04248971193415638,8.497942386831275,0)" xlink:href="#bu"/><use transform="matrix(0.04248971193415638,0,0,0.04248971193415638,16.99588477366255,0)" xlink:href="#bv"/></g><path fill="#a9afb8" d="M101-251c82-7 93 87 43 132L82-64C71-53 59-42 53-27h129V0H18c2-99 128-94 128-182 0-28-16-43-45-43s-46 15-49 41l-32-3c6-41 34-60 81-64" id="bw"/><g id="p"><use transform="matrix(0.04248971193415638,0,0,0.04248971193415638,0,0)" xlink:href="#bw"/><use transform="matrix(0.04248971193415638,0,0,0.04248971193415638,8.497942386831275,0)" xlink:href="#bu"/><use transform="matrix(0.04248971193415638,0,0,0.04248971193415638,16.99588477366255,0)" xlink:href="#bw"/><use transform="matrix(0.04248971193415638,0,0,0.04248971193415638,25.493827160493822,0)" xlink:href="#bw"/></g><path fill="#333" d="M230 0l2-204L168 0h-37L68-204 70 0H24v-248h70l56 185 57-185h69V0h-46" id="bx"/><path fill="#333" d="M85 4C-2 5 27-109 22-190h50c7 57-23 150 33 157 60-5 35-97 40-157h50l1 190h-47c-2-12 1-28-3-38-12 25-28 42-61 42" id="by"/><path fill="#333" d="M25 0v-261h50V0H25" id="bz"/><path fill="#333" d="M169-182c-1-43-94-46-97-3 18 66 151 10 154 114 3 95-165 93-204 36-6-8-10-19-12-30l50-8c3 46 112 56 116 5-17-69-150-10-154-114-4-87 153-88 188-35 5 8 8 18 10 28" id="bA"/><path fill="#333" d="M185-48c-13 30-37 53-82 52C43 2 14-33 14-96s30-98 90-98c62 0 83 45 84 108H66c0 31 8 55 39 56 18 0 30-7 34-22zm-45-69c5-46-57-63-70-21-2 6-4 13-4 21h74" id="bB"/><path fill="#333" d="M238-95c0 69-44 99-111 99C63 4 22-25 22-93v-155h51v151c-1 38 19 59 55 60 90 1 49-130 58-211h52v153" id="bC"/><path fill="#333" d="M137-138c1-29-70-34-71-4 15 46 118 7 119 86 1 83-164 76-172 9l43-7c4 19 20 25 44 25 33 8 57-30 24-41C81-84 22-81 20-136c-2-80 154-74 161-7" id="bD"/><path fill="#333" d="M88-194c31-1 46 15 58 34l-1-101h50l1 261h-48c-2-10 0-23-3-31C134-8 116 4 84 4 32 4 16-41 15-95c0-56 19-97 73-99zm17 164c33 0 40-30 41-66 1-37-9-64-41-64s-38 30-39 65c0 43 13 65 39 65" id="bE"/><g id="q"><use transform="matrix(0.05,0,0,0.05,0,0)" xlink:href="#av"/><use transform="matrix(0.05,0,0,0.05,5,0)" xlink:href="#bx"/><use transform="matrix(0.05,0,0,0.05,19.950000000000003,0)" xlink:href="#by"/><use transform="matrix(0.05,0,0,0.05,30.900000000000006,0)" xlink:href="#bz"/><use transform="matrix(0.05,0,0,0.05,35.900000000000006,0)" xlink:href="#az"/><use transform="matrix(0.05,0,0,0.05,41.85000000000001,0)" xlink:href="#ax"/><use transform="matrix(0.05,0,0,0.05,46.85000000000001,0)" xlink:href="#bA"/><use transform="matrix(0.05,0,0,0.05,58.85,0)" xlink:href="#bB"/><use transform="matrix(0.05,0,0,0.05,68.85000000000001,0)" xlink:href="#az"/><use transform="matrix(0.05,0,0,0.05,74.80000000000001,0)" xlink:href="#bC"/><use transform="matrix(0.05,0,0,0.05,87.75000000000001,0)" xlink:href="#aB"/><use transform="matrix(0.05,0,0,0.05,98.70000000000002,0)" xlink:href="#bD"/><use transform="matrix(0.05,0,0,0.05,108.7,0)" xlink:href="#aA"/><use transform="matrix(0.05,0,0,0.05,119.65000000000003,0)" xlink:href="#aD"/><use transform="matrix(0.05,0,0,0.05,126.65000000000003,0)" xlink:href="#az"/><use transform="matrix(0.05,0,0,0.05,132.60000000000002,0)" xlink:href="#bB"/><use transform="matrix(0.05,0,0,0.05,142.60000000000002,0)" xlink:href="#bE"/></g><g id="r"><use transform="matrix(0.05,0,0,0.05,0,0)" xlink:href="#av"/><use transform="matrix(0.05,0,0,0.05,5,0)" xlink:href="#bx"/><use transform="matrix(0.05,0,0,0.05,19.950000000000003,0)" xlink:href="#by"/><use transform="matrix(0.05,0,0,0.05,30.900000000000006,0)" xlink:href="#bz"/><use transform="matrix(0.05,0,0,0.05,35.900000000000006,0)" xlink:href="#az"/><use transform="matrix(0.05,0,0,0.05,41.85000000000001,0)" xlink:href="#ax"/><use transform="matrix(0.05,0,0,0.05,46.85000000000001,0)" xlink:href="#bA"/><use transform="matrix(0.05,0,0,0.05,58.85,0)" xlink:href="#bB"/><use transform="matrix(0.05,0,0,0.05,68.85000000000001,0)" xlink:href="#az"/><use transform="matrix(0.05,0,0,0.05,74.80000000000001,0)" xlink:href="#bA"/><use transform="matrix(0.05,0,0,0.05,86.80000000000001,0)" xlink:href="#aA"/><use transform="matrix(0.05,0,0,0.05,97.75000000000001,0)" xlink:href="#aD"/><use transform="matrix(0.05,0,0,0.05,104.75,0)" xlink:href="#az"/><use transform="matrix(0.05,0,0,0.05,110.7,0)" xlink:href="#bB"/><use transform="matrix(0.05,0,0,0.05,120.7,0)" xlink:href="#bE"/></g><g id="s"><use transform="matrix(0.05,0,0,0.05,0,0)" xlink:href="#av"/><use transform="matrix(0.05,0,0,0.05,5,0)" xlink:href="#bA"/><use transform="matrix(0.05,0,0,0.05,17,0)" xlink:href="#bB"/><use transform="matrix(0.05,0,0,0.05,27,0)" xlink:href="#az"/><use transform="matrix(0.05,0,0,0.05,32.95,0)" xlink:href="#bC"/><use transform="matrix(0.05,0,0,0.05,45.900000000000006,0)" xlink:href="#aB"/><use transform="matrix(0.05,0,0,0.05,56.85,0)" xlink:href="#bD"/><use transform="matrix(0.05,0,0,0.05,66.85000000000001,0)" xlink:href="#aA"/><use transform="matrix(0.05,0,0,0.05,77.80000000000001,0)" xlink:href="#aD"/><use transform="matrix(0.05,0,0,0.05,84.80000000000001,0)" xlink:href="#az"/><use transform="matrix(0.05,0,0,0.05,90.75000000000001,0)" xlink:href="#bB"/><use transform="matrix(0.05,0,0,0.05,100.75000000000001,0)" xlink:href="#bE"/></g><g id="t"><use transform="matrix(0.05,0,0,0.05,0,0)" xlink:href="#av"/><use transform="matrix(0.05,0,0,0.05,5,0)" xlink:href="#bA"/><use transform="matrix(0.05,0,0,0.05,17,0)" xlink:href="#bB"/><use transform="matrix(0.05,0,0,0.05,27,0)" xlink:href="#az"/><use transform="matrix(0.05,0,0,0.05,32.95,0)" xlink:href="#bA"/><use transform="matrix(0.05,0,0,0.05,44.95,0)" xlink:href="#aA"/><use transform="matrix(0.05,0,0,0.05,55.900000000000006,0)" xlink:href="#aD"/><use transform="matrix(0.05,0,0,0.05,62.900000000000006,0)" xlink:href="#az"/><use transform="matrix(0.05,0,0,0.05,68.85000000000001,0)" xlink:href="#bB"/><use transform="matrix(0.05,0,0,0.05,78.85000000000001,0)" xlink:href="#bE"/></g><path fill="#635dff" d="M169-182c-1-43-94-46-97-3 18 66 151 10 154 114 3 95-165 93-204 36-6-8-10-19-12-30l50-8c3 46 112 56 116 5-17-69-150-10-154-114-4-87 153-88 188-35 5 8 8 18 10 28" id="bF"/><path fill="#635dff" d="M185-48c-13 30-37 53-82 52C43 2 14-33 14-96s30-98 90-98c62 0 83 45 84 108H66c0 31 8 55 39 56 18 0 30-7 34-22zm-45-69c5-46-57-63-70-21-2 6-4 13-4 21h74" id="bG"/><path fill="#635dff" d="M115-3C79 11 28 4 28-45v-112H4v-33h27l15-45h31v45h36v33H77v99c-1 23 16 31 38 25v30" id="bH"/><path fill="#635dff" d="M238-95c0 69-44 99-111 99C63 4 22-25 22-93v-155h51v151c-1 38 19 59 55 60 90 1 49-130 58-211h52v153" id="bI"/><path fill="#635dff" d="M135-194c87-1 58 113 63 194h-50c-7-57 23-157-34-157-59 0-34 97-39 157H25l-1-190h47c2 12-1 28 3 38 12-26 28-41 61-42" id="bJ"/><path fill="#635dff" d="M137-138c1-29-70-34-71-4 15 46 118 7 119 86 1 83-164 76-172 9l43-7c4 19 20 25 44 25 33 8 57-30 24-41C81-84 22-81 20-136c-2-80 154-74 161-7" id="bK"/><path fill="#635dff" d="M110-194c64 0 96 36 96 99 0 64-35 99-97 99-61 0-95-36-95-99 0-62 34-99 96-99zm-1 164c35 0 45-28 45-65 0-40-10-65-43-65-34 0-45 26-45 65 0 36 10 65 43 65" id="bL"/><path fill="#635dff" d="M135-150c-39-12-60 13-60 57V0H25l-1-190h47c2 13-1 29 3 40 6-28 27-53 61-41v41" id="bM"/><path fill="#635dff" d="M88-194c31-1 46 15 58 34l-1-101h50l1 261h-48c-2-10 0-23-3-31C134-8 116 4 84 4 32 4 16-41 15-95c0-56 19-97 73-99zm17 164c33 0 40-30 41-66 1-37-9-64-41-64s-38 30-39 65c0 43 13 65 39 65" id="bN"/><path fill="#635dff" d="M199 0l-22-63H83L61 0H9l90-248h61L250 0h-51zm-33-102l-36-108c-10 38-24 72-36 108h72" id="bO"/><path fill="#635dff" d="M133-34C117-15 103 5 69 4 32 3 11-16 11-54c-1-60 55-63 116-61 1-26-3-47-28-47-18 1-26 9-28 27l-52-2c7-38 36-58 82-57s74 22 75 68l1 82c-1 14 12 18 25 15v27c-30 8-71 5-69-32zm-48 3c29 0 43-24 42-57-32 0-66-3-65 30 0 17 8 27 23 27" id="bP"/><path fill="#635dff" d="M123 10C108 53 80 86 19 72V37c35 8 53-11 59-39L3-190h52l48 148c12-52 28-100 44-148h51" id="bQ"/><g id="u"><use transform="matrix(0.05,0,0,0.05,0,0)" xlink:href="#bF"/><use transform="matrix(0.05,0,0,0.05,12,0)" xlink:href="#bG"/><use transform="matrix(0.05,0,0,0.05,22,0)" xlink:href="#bH"/><use transform="matrix(0.05,0,0,0.05,27.950000000000003,0)" xlink:href="#bI"/><use transform="matrix(0.05,0,0,0.05,40.9,0)" xlink:href="#bJ"/><use transform="matrix(0.05,0,0,0.05,51.85,0)" xlink:href="#bK"/><use transform="matrix(0.05,0,0,0.05,61.85,0)" xlink:href="#bL"/><use transform="matrix(0.05,0,0,0.05,72.8,0)" xlink:href="#bM"/><use transform="matrix(0.05,0,0,0.05,79.8,0)" xlink:href="#bH"/><use transform="matrix(0.05,0,0,0.05,85.75,0)" xlink:href="#bG"/><use transform="matrix(0.05,0,0,0.05,95.75,0)" xlink:href="#bN"/><use transform="matrix(0.05,0,0,0.05,106.7,0)" xlink:href="#bO"/><use transform="matrix(0.05,0,0,0.05,119.65,0)" xlink:href="#bM"/><use transform="matrix(0.05,0,0,0.05,126.65,0)" xlink:href="#bM"/><use transform="matrix(0.05,0,0,0.05,133.65,0)" xlink:href="#bP"/><use transform="matrix(0.05,0,0,0.05,143.65,0)" xlink:href="#bQ"/></g><g id="v"><use transform="matrix(0.05,0,0,0.05,0,0)" xlink:href="#bF"/><use transform="matrix(0.05,0,0,0.05,12,0)" xlink:href="#bG"/><use transform="matrix(0.05,0,0,0.05,22,0)" xlink:href="#bH"/><use transform="matrix(0.05,0,0,0.05,27.950000000000003,0)" xlink:href="#bF"/><use transform="matrix(0.05,0,0,0.05,39.95,0)" xlink:href="#bL"/><use transform="matrix(0.05,0,0,0.05,50.900000000000006,0)" xlink:href="#bM"/><use transform="matrix(0.05,0,0,0.05,57.900000000000006,0)" xlink:href="#bH"/><use transform="matrix(0.05,0,0,0.05,63.85,0)" xlink:href="#bG"/><use transform="matrix(0.05,0,0,0.05,73.85000000000001,0)" xlink:href="#bN"/><use transform="matrix(0.05,0,0,0.05,84.80000000000001,0)" xlink:href="#bO"/><use transform="matrix(0.05,0,0,0.05,97.75000000000001,0)" xlink:href="#bM"/><use transform="matrix(0.05,0,0,0.05,104.75,0)" xlink:href="#bM"/><use transform="matrix(0.05,0,0,0.05,111.75,0)" xlink:href="#bP"/><use transform="matrix(0.05,0,0,0.05,121.75,0)" xlink:href="#bQ"/></g><path fill="#635dff" d="M230 0l2-204L168 0h-37L68-204 70 0H24v-248h70l56 185 57-185h69V0h-46" id="bR"/><path fill="#635dff" d="M85 4C-2 5 27-109 22-190h50c7 57-23 150 33 157 60-5 35-97 40-157h50l1 190h-47c-2-12 1-28-3-38-12 25-28 42-61 42" id="bS"/><path fill="#635dff" d="M25 0v-261h50V0H25" id="bT"/><path fill="#635dff" d="M25-224v-37h50v37H25zM25 0v-190h50V0H25" id="bU"/><g id="w"><use transform="matrix(0.05,0,0,0.05,0,0)" xlink:href="#bR"/><use transform="matrix(0.05,0,0,0.05,14.950000000000001,0)" xlink:href="#bS"/><use transform="matrix(0.05,0,0,0.05,25.900000000000002,0)" xlink:href="#bT"/><use transform="matrix(0.05,0,0,0.05,30.900000000000002,0)" xlink:href="#bH"/><use transform="matrix(0.05,0,0,0.05,36.85,0)" xlink:href="#bU"/><use transform="matrix(0.05,0,0,0.05,41.85,0)" xlink:href="#bF"/><use transform="matrix(0.05,0,0,0.05,53.85,0)" xlink:href="#bG"/><use transform="matrix(0.05,0,0,0.05,63.85,0)" xlink:href="#bH"/><use transform="matrix(0.05,0,0,0.05,69.8,0)" xlink:href="#bF"/><use transform="matrix(0.05,0,0,0.05,81.8,0)" xlink:href="#bL"/><use transform="matrix(0.05,0,0,0.05,92.75,0)" xlink:href="#bM"/><use transform="matrix(0.05,0,0,0.05,99.75,0)" xlink:href="#bH"/><use transform="matrix(0.05,0,0,0.05,105.7,0)" xlink:href="#bG"/><use transform="matrix(0.05,0,0,0.05,115.7,0)" xlink:href="#bN"/><use transform="matrix(0.05,0,0,0.05,126.65,0)" xlink:href="#bO"/><use transform="matrix(0.05,0,0,0.05,139.6,0)" xlink:href="#bM"/><use transform="matrix(0.05,0,0,0.05,146.6,0)" xlink:href="#bM"/><use transform="matrix(0.05,0,0,0.05,153.6,0)" xlink:href="#bP"/><use transform="matrix(0.05,0,0,0.05,163.6,0)" xlink:href="#bQ"/></g><g id="x"><use transform="matrix(0.05,0,0,0.05,0,0)" xlink:href="#bR"/><use transform="matrix(0.05,0,0,0.05,14.950000000000001,0)" xlink:href="#bS"/><use transform="matrix(0.05,0,0,0.05,25.900000000000002,0)" xlink:href="#bT"/><use transform="matrix(0.05,0,0,0.05,30.900000000000002,0)" xlink:href="#bH"/><use transform="matrix(0.05,0,0,0.05,36.85,0)" xlink:href="#bU"/><use transform="matrix(0.05,0,0,0.05,41.85,0)" xlink:href="#bF"/><use transform="matrix(0.05,0,0,0.05,53.85,0)" xlink:href="#bG"/><use transform="matrix(0.05,0,0,0.05,63.85,0)" xlink:href="#bH"/><use transform="matrix(0.05,0,0,0.05,69.8,0)" xlink:href="#bI"/><use transform="matrix(0.05,0,0,0.05,82.75,0)" xlink:href="#bJ"/><use transform="matrix(0.05,0,0,0.05,93.7,0)" xlink:href="#bK"/><use transform="matrix(0.05,0,0,0.05,103.7,0)" xlink:href="#bL"/><use transform="matrix(0.05,0,0,0.05,114.65,0)" xlink:href="#bM"/><use transform="matrix(0.05,0,0,0.05,121.65,0)" xlink:href="#bH"/><use transform="matrix(0.05,0,0,0.05,127.60000000000001,0)" xlink:href="#bG"/><use transform="matrix(0.05,0,0,0.05,137.60000000000002,0)" xlink:href="#bN"/><use transform="matrix(0.05,0,0,0.05,148.55,0)" xlink:href="#bO"/><use transform="matrix(0.05,0,0,0.05,161.5,0)" xlink:href="#bM"/><use transform="matrix(0.05,0,0,0.05,168.5,0)" xlink:href="#bM"/><use transform="matrix(0.05,0,0,0.05,175.5,0)" xlink:href="#bP"/><use transform="matrix(0.05,0,0,0.05,185.5,0)" xlink:href="#bQ"/></g><path fill="#333" d="M133 41v34c-50 4-88-6-87-53 0-46 9-101-40-98v-34c48 2 40-52 40-98-1-47 37-57 87-53v34c-79-14-6 124-77 134 73 11-4 147 77 134" id="bV"/><path fill="#333" d="M135-194c52 0 70 43 70 98 0 56-19 99-73 100-30 1-46-15-58-35L72 0H24l1-261h50v104c11-23 29-37 60-37zM114-30c31 0 40-27 40-66 0-37-7-63-39-63s-41 28-41 65c0 36 8 64 40 64" id="bW"/><path fill="#333" d="M94-36c2 56 4 113-52 111H8V41C85 54 13-83 84-94c-39-5-38-51-36-97 1-27-12-38-40-36v-34c49-4 87 6 86 53s-8 101 41 98v34c-26 1-42 13-41 40" id="bX"/><g id="y"><use transform="matrix(0.05,0,0,0.05,0,0)" xlink:href="#bV"/><use transform="matrix(0.05,0,0,0.05,7,0)" xlink:href="#aC"/><use transform="matrix(0.05,0,0,0.05,17,0)" xlink:href="#bW"/><use transform="matrix(0.05,0,0,0.05,27.950000000000003,0)" xlink:href="#bD"/><use transform="matrix(0.05,0,0,0.05,37.95,0)" xlink:href="#az"/><use transform="matrix(0.05,0,0,0.05,43.900000000000006,0)" xlink:href="#aD"/><use transform="matrix(0.05,0,0,0.05,50.900000000000006,0)" xlink:href="#aC"/><use transform="matrix(0.05,0,0,0.05,60.900000000000006,0)" xlink:href="#ay"/><use transform="matrix(0.05,0,0,0.05,70.9,0)" xlink:href="#az"/><use transform="matrix(0.05,0,0,0.05,76.85000000000001,0)" xlink:href="#bX"/></g><path fill="#333" d="M140-251c80 0 125 45 125 126 0 70-33 111-92 124 6 28 34 38 68 31l-1 36C177 83 129 55 120 2 51-6 15-50 15-125c0-81 44-126 125-126zm-1 214c52 0 73-35 73-88 0-50-21-86-72-86-52 0-73 35-73 86s22 88 72 88" id="bY"/><g id="z"><use transform="matrix(0.05,0,0,0.05,0,0)" xlink:href="#bY"/><use transform="matrix(0.05,0,0,0.05,14,0)" xlink:href="#by"/><use transform="matrix(0.05,0,0,0.05,24.950000000000003,0)" xlink:href="#bB"/><use transform="matrix(0.05,0,0,0.05,34.95,0)" xlink:href="#by"/><use transform="matrix(0.05,0,0,0.05,45.900000000000006,0)" xlink:href="#bB"/></g><path fill="#333" d="M115-194c55 1 70 41 70 98S169 2 115 4C84 4 66-9 55-30l1 105H24l-1-265h31l2 30c10-21 28-34 59-34zm-8 174c40 0 45-34 45-75s-6-73-45-74c-42 0-51 32-51 76 0 43 10 73 51 73" id="bZ"/><path fill="#333" d="M84 4C-5 8 30-112 23-190h32v120c0 31 7 50 39 49 72-2 45-101 50-169h31l1 190h-30c-1-10 1-25-2-33-11 22-28 36-60 37" id="ca"/><path fill="#333" d="M87 75C49 33 22-17 22-94c0-76 28-126 65-167h31c-38 41-64 92-64 168S80 34 118 75H87" id="cb"/><path fill="#333" d="M210-169c-67 3-38 105-44 169h-31v-121c0-29-5-50-35-48C34-165 62-65 56 0H25l-1-190h30c1 10-1 24 2 32 10-44 99-50 107 0 11-21 27-35 58-36 85-2 47 119 55 194h-31v-121c0-29-5-49-35-48" id="cc"/><g id="A"><use transform="matrix(0.05,0,0,0.05,0,0)" xlink:href="#bZ"/><use transform="matrix(0.05,0,0,0.05,10,0)" xlink:href="#ca"/><use transform="matrix(0.05,0,0,0.05,20,0)" xlink:href="#ar"/><use transform="matrix(0.05,0,0,0.05,25,0)" xlink:href="#cb"/><use transform="matrix(0.05,0,0,0.05,30.950000000000003,0)" xlink:href="#aq"/><use transform="matrix(0.05,0,0,0.05,34.9,0)" xlink:href="#ar"/><use transform="matrix(0.05,0,0,0.05,39.9,0)" xlink:href="#as"/><use transform="matrix(0.05,0,0,0.05,49.9,0)" xlink:href="#cc"/></g><path fill="#333" d="M33-261c38 41 65 92 65 168S71 34 33 75H2C39 34 66-17 66-93S39-220 2-261h31" id="cd"/><g id="B"><use transform="matrix(0.05,0,0,0.05,0,0)" xlink:href="#as"/><use transform="matrix(0.05,0,0,0.05,10,0)" xlink:href="#cd"/></g><path fill="#333" d="M177-190C167-65 218 103 67 71c-23-6-38-20-44-43l32-5c15 47 100 32 89-28v-30C133-14 115 1 83 1 29 1 15-40 15-95c0-56 16-97 71-98 29-1 48 16 59 35 1-10 0-23 2-32h30zM94-22c36 0 50-32 50-73 0-42-14-75-50-75-39 0-46 34-46 75s6 73 46 73" id="ce"/><g id="C"><use transform="matrix(0.05,0,0,0.05,0,0)" xlink:href="#ce"/><use transform="matrix(0.05,0,0,0.05,10,0)" xlink:href="#as"/><use transform="matrix(0.05,0,0,0.05,20,0)" xlink:href="#ar"/><use transform="matrix(0.05,0,0,0.05,25,0)" xlink:href="#cb"/><use transform="matrix(0.05,0,0,0.05,30.950000000000003,0)" xlink:href="#cd"/></g><path fill="#333" d="M85-194c31 0 48 13 60 33l-1-100h32l1 261h-30c-2-10 0-23-3-31C134-8 116 4 85 4 32 4 16-35 15-94c0-66 23-100 70-100zm9 24c-40 0-46 34-46 75 0 40 6 74 45 74 42 0 51-32 51-76 0-42-9-74-50-73" id="cf"/><g id="D"><use transform="matrix(0.05,0,0,0.05,0,0)" xlink:href="#cf"/><use transform="matrix(0.05,0,0,0.05,10,0)" xlink:href="#as"/><use transform="matrix(0.05,0,0,0.05,20,0)" xlink:href="#at"/><use transform="matrix(0.05,0,0,0.05,23.95,0)" xlink:href="#as"/><use transform="matrix(0.05,0,0,0.05,33.95,0)" xlink:href="#ar"/><use transform="matrix(0.05,0,0,0.05,38.95,0)" xlink:href="#as"/><use transform="matrix(0.05,0,0,0.05,48.95,0)" xlink:href="#cb"/><use transform="matrix(0.05,0,0,0.05,54.900000000000006,0)" xlink:href="#cd"/></g><path fill="#333" d="M147 0L96-86 75-71V0H25v-261h50v150l67-79h53l-66 74L201 0h-54" id="cg"/><g id="E"><use transform="matrix(0.05,0,0,0.05,0,0)" xlink:href="#bA"/><use transform="matrix(0.05,0,0,0.05,12,0)" xlink:href="#az"/><use transform="matrix(0.05,0,0,0.05,17.95,0)" xlink:href="#aC"/><use transform="matrix(0.05,0,0,0.05,27.950000000000003,0)" xlink:href="#ay"/><use transform="matrix(0.05,0,0,0.05,37.95,0)" xlink:href="#cg"/></g><g id="F"><use transform="matrix(0.05,0,0,0.05,0,0)" xlink:href="#bZ"/><use transform="matrix(0.05,0,0,0.05,10,0)" xlink:href="#ca"/><use transform="matrix(0.05,0,0,0.05,20,0)" xlink:href="#am"/><use transform="matrix(0.05,0,0,0.05,29,0)" xlink:href="#ao"/><use transform="matrix(0.05,0,0,0.05,39,0)" xlink:href="#cb"/><use transform="matrix(0.05,0,0,0.05,44.95,0)" xlink:href="#aq"/><use transform="matrix(0.05,0,0,0.05,48.900000000000006,0)" xlink:href="#ar"/><use transform="matrix(0.05,0,0,0.05,53.900000000000006,0)" xlink:href="#as"/><use transform="matrix(0.05,0,0,0.05,63.900000000000006,0)" xlink:href="#cc"/></g><path fill="#333" d="M100-194c62-1 85 37 85 99 1 63-27 99-86 99S16-35 15-95c0-66 28-99 85-99zM99-20c44 1 53-31 53-75 0-43-8-75-51-75s-53 32-53 75 10 74 51 75" id="ch"/><g id="G"><use transform="matrix(0.05,0,0,0.05,0,0)" xlink:href="#ar"/><use transform="matrix(0.05,0,0,0.05,5,0)" xlink:href="#ch"/><use transform="matrix(0.05,0,0,0.05,15,0)" xlink:href="#bZ"/><use transform="matrix(0.05,0,0,0.05,25,0)" xlink:href="#cb"/><use transform="matrix(0.05,0,0,0.05,30.950000000000003,0)" xlink:href="#cd"/></g><g id="H"><use transform="matrix(0.05,0,0,0.05,0,0)" xlink:href="#bZ"/><use transform="matrix(0.05,0,0,0.05,10,0)" xlink:href="#ch"/><use transform="matrix(0.05,0,0,0.05,20,0)" xlink:href="#bZ"/><use transform="matrix(0.05,0,0,0.05,30,0)" xlink:href="#cb"/><use transform="matrix(0.05,0,0,0.05,35.95,0)" xlink:href="#cd"/></g><path fill="#333" d="M84 4C32 4 15-41 15-95c0-55 18-99 73-99 29 0 47 12 58 34l2-30h48l-1 265h-49V-32C136-9 114 4 84 4zm21-34c32 0 41-29 41-66 0-36-9-64-40-64-33 0-39 30-40 65 0 43 13 65 39 65" id="ci"/><g id="I"><use transform="matrix(0.05,0,0,0.05,0,0)" xlink:href="#bA"/><use transform="matrix(0.05,0,0,0.05,12,0)" xlink:href="#bB"/><use transform="matrix(0.05,0,0,0.05,22,0)" xlink:href="#ci"/><use transform="matrix(0.05,0,0,0.05,32.95,0)" xlink:href="#by"/><use transform="matrix(0.05,0,0,0.05,43.900000000000006,0)" xlink:href="#bB"/><use transform="matrix(0.05,0,0,0.05,53.900000000000006,0)" xlink:href="#aB"/><use transform="matrix(0.05,0,0,0.05,64.85000000000001,0)" xlink:href="#ay"/><use transform="matrix(0.05,0,0,0.05,74.85000000000001,0)" xlink:href="#bB"/></g><path fill="#333" d="M114-163C36-179 61-72 57 0H25l-1-190h30c1 12-1 29 2 39 6-27 23-49 58-41v29" id="cj"/><g id="J"><use transform="matrix(0.05,0,0,0.05,0,0)" xlink:href="#aq"/><use transform="matrix(0.05,0,0,0.05,3.95,0)" xlink:href="#ap"/><use transform="matrix(0.05,0,0,0.05,13.949999999999998,0)" xlink:href="#am"/><use transform="matrix(0.05,0,0,0.05,22.95,0)" xlink:href="#as"/><use transform="matrix(0.05,0,0,0.05,32.95,0)" xlink:href="#cj"/><use transform="matrix(0.05,0,0,0.05,38.900000000000006,0)" xlink:href="#ar"/><use transform="matrix(0.05,0,0,0.05,43.900000000000006,0)" xlink:href="#cb"/><use transform="matrix(0.05,0,0,0.05,49.85000000000001,0)" xlink:href="#aq"/><use transform="matrix(0.05,0,0,0.05,53.80000000000001,0)" xlink:href="#ar"/><use transform="matrix(0.05,0,0,0.05,58.80000000000001,0)" xlink:href="#as"/><use transform="matrix(0.05,0,0,0.05,68.80000000000001,0)" xlink:href="#cc"/></g><path fill="#333" d="M68-38c1 34 0 65-14 84H32c9-13 17-26 17-46H33v-38h35" id="ck"/><g id="K"><use transform="matrix(0.05,0,0,0.05,0,0)" xlink:href="#as"/><use transform="matrix(0.05,0,0,0.05,10,0)" xlink:href="#ck"/></g><g id="L"><use transform="matrix(0.05,0,0,0.05,0,0)" xlink:href="#bZ"/><use transform="matrix(0.05,0,0,0.05,10,0)" xlink:href="#ch"/><use transform="matrix(0.05,0,0,0.05,20,0)" xlink:href="#am"/></g><g id="M"><use transform="matrix(0.05,0,0,0.05,0,0)" xlink:href="#bZ"/><use transform="matrix(0.05,0,0,0.05,10,0)" xlink:href="#cd"/></g><g id="N"><use transform="matrix(0.05,0,0,0.05,0,0)" xlink:href="#cf"/><use transform="matrix(0.05,0,0,0.05,10,0)" xlink:href="#as"/><use transform="matrix(0.05,0,0,0.05,20,0)" xlink:href="#at"/><use transform="matrix(0.05,0,0,0.05,23.95,0)" xlink:href="#as"/><use transform="matrix(0.05,0,0,0.05,33.95,0)" xlink:href="#ar"/><use transform="matrix(0.05,0,0,0.05,38.95,0)" xlink:href="#as"/><use transform="matrix(0.05,0,0,0.05,48.95,0)" xlink:href="#cb"/><use transform="matrix(0.05,0,0,0.05,54.900000000000006,0)" xlink:href="#bZ"/><use transform="matrix(0.05,0,0,0.05,64.9,0)" xlink:href="#ch"/><use transform="matrix(0.05,0,0,0.05,74.9,0)" xlink:href="#am"/></g><g id="O"><use transform="matrix(0.05,0,0,0.05,0,0)" xlink:href="#ce"/><use transform="matrix(0.05,0,0,0.05,10,0)" xlink:href="#as"/><use transform="matrix(0.05,0,0,0.05,20,0)" xlink:href="#ar"/><use transform="matrix(0.05,0,0,0.05,25,0)" xlink:href="#cb"/><use transform="matrix(0.05,0,0,0.05,30.950000000000003,0)" xlink:href="#bZ"/><use transform="matrix(0.05,0,0,0.05,40.95,0)" xlink:href="#ch"/><use transform="matrix(0.05,0,0,0.05,50.95,0)" xlink:href="#am"/></g><use transform="matrix(0.05,0,0,0.05,0,0)" xlink:href="#bZ" id="P"/><path fill="#333" d="M26 75v-336h71v23H56V52h41v23H26" id="cl"/><path fill="#333" d="M141-36C126-15 110 5 73 4 37 3 15-17 15-53c-1-64 63-63 125-63 3-35-9-54-41-54-24 1-41 7-42 31l-33-3c5-37 33-52 76-52 45 0 72 20 72 64v82c-1 20 7 32 28 27v20c-31 9-61-2-59-35zM48-53c0 20 12 33 32 33 41-3 63-29 60-74-43 2-92-5-92 41" id="cm"/><path fill="#333" d="M145-31C134-9 116 4 85 4 32 4 16-35 15-94c0-59 17-99 70-100 32-1 48 14 60 33 0-11-1-24 2-32h30l-1 268h-32zM93-21c41 0 51-33 51-76s-8-73-50-73c-40 0-46 35-46 75s5 74 45 74" id="cn"/><g id="Q"><use transform="matrix(0.05,0,0,0.05,0,0)" xlink:href="#cl"/><use transform="matrix(0.05,0,0,0.05,5,0)" xlink:href="#an"/><use transform="matrix(0.05,0,0,0.05,14,0)" xlink:href="#ch"/><use transform="matrix(0.05,0,0,0.05,24,0)" xlink:href="#ap"/><use transform="matrix(0.05,0,0,0.05,34,0)" xlink:href="#an"/><use transform="matrix(0.05,0,0,0.05,43,0)" xlink:href="#cm"/><use transform="matrix(0.05,0,0,0.05,53,0)" xlink:href="#ar"/><use transform="matrix(0.05,0,0,0.05,58,0)" xlink:href="#as"/><use transform="matrix(0.05,0,0,0.05,68,0)" xlink:href="#ap"/><use transform="matrix(0.05,0,0,0.05,78,0)" xlink:href="#cm"/><use transform="matrix(0.05,0,0,0.05,88,0)" xlink:href="#ar"/><use transform="matrix(0.05,0,0,0.05,93,0)" xlink:href="#as"/><use transform="matrix(0.05,0,0,0.05,103,0)" xlink:href="#cb"/><use transform="matrix(0.05,0,0,0.05,108.95,0)" xlink:href="#am"/><use transform="matrix(0.05,0,0,0.05,117.95,0)" xlink:href="#as"/><use transform="matrix(0.05,0,0,0.05,127.95,0)" xlink:href="#cn"/></g><path fill="#333" d="M3 75V52h41v-290H3v-23h71V75H3" id="co"/><g id="R"><use transform="matrix(0.05,0,0,0.05,0,0)" xlink:href="#am"/><use transform="matrix(0.05,0,0,0.05,9,0)" xlink:href="#cd"/><use transform="matrix(0.05,0,0,0.05,14.949999999999998,0)" xlink:href="#co"/></g><path fill="#333" d="M24 0v-248h52v208h133V0H24" id="cp"/><g id="S"><use transform="matrix(0.05,0,0,0.05,0,0)" xlink:href="#cp"/><use transform="matrix(0.05,0,0,0.05,10.950000000000001,0)" xlink:href="#ax"/><use transform="matrix(0.05,0,0,0.05,15.950000000000001,0)" xlink:href="#bD"/><use transform="matrix(0.05,0,0,0.05,25.950000000000003,0)" xlink:href="#az"/></g><g id="T"><use transform="matrix(0.05,0,0,0.05,0,0)" xlink:href="#cf"/><use transform="matrix(0.05,0,0,0.05,10,0)" xlink:href="#as"/><use transform="matrix(0.05,0,0,0.05,20,0)" xlink:href="#at"/><use transform="matrix(0.05,0,0,0.05,23.95,0)" xlink:href="#as"/><use transform="matrix(0.05,0,0,0.05,33.95,0)" xlink:href="#ar"/><use transform="matrix(0.05,0,0,0.05,38.95,0)" xlink:href="#as"/><use transform="matrix(0.05,0,0,0.05,48.95,0)" xlink:href="#cb"/><use transform="matrix(0.05,0,0,0.05,54.900000000000006,0)" xlink:href="#aq"/><use transform="matrix(0.05,0,0,0.05,58.85,0)" xlink:href="#ar"/><use transform="matrix(0.05,0,0,0.05,63.85,0)" xlink:href="#as"/><use transform="matrix(0.05,0,0,0.05,73.85000000000001,0)" xlink:href="#cc"/></g><g id="U"><use transform="matrix(0.05,0,0,0.05,0,0)" xlink:href="#ce"/><use transform="matrix(0.05,0,0,0.05,10,0)" xlink:href="#as"/><use transform="matrix(0.05,0,0,0.05,20,0)" xlink:href="#ar"/><use transform="matrix(0.05,0,0,0.05,25,0)" xlink:href="#cb"/><use transform="matrix(0.05,0,0,0.05,30.950000000000003,0)" xlink:href="#ao"/><use transform="matrix(0.05,0,0,0.05,40.95,0)" xlink:href="#as"/><use transform="matrix(0.05,0,0,0.05,50.95,0)" xlink:href="#cm"/><use transform="matrix(0.05,0,0,0.05,60.95,0)" xlink:href="#cf"/></g><g id="V"><use transform="matrix(0.05,0,0,0.05,0,0)" xlink:href="#ao"/><use transform="matrix(0.05,0,0,0.05,10,0)" xlink:href="#cd"/></g><path fill="#fc9432" d="M169-182c-1-43-94-46-97-3 18 66 151 10 154 114 3 95-165 93-204 36-6-8-10-19-12-30l50-8c3 46 112 56 116 5-17-69-150-10-154-114-4-87 153-88 188-35 5 8 8 18 10 28" id="cq"/><path fill="#fc9432" d="M185-48c-13 30-37 53-82 52C43 2 14-33 14-96s30-98 90-98c62 0 83 45 84 108H66c0 31 8 55 39 56 18 0 30-7 34-22zm-45-69c5-46-57-63-70-21-2 6-4 13-4 21h74" id="cr"/><path fill="#fc9432" d="M115-3C79 11 28 4 28-45v-112H4v-33h27l15-45h31v45h36v33H77v99c-1 23 16 31 38 25v30" id="cs"/><path fill="#fc9432" d="M238-95c0 69-44 99-111 99C63 4 22-25 22-93v-155h51v151c-1 38 19 59 55 60 90 1 49-130 58-211h52v153" id="ct"/><path fill="#fc9432" d="M135-194c87-1 58 113 63 194h-50c-7-57 23-157-34-157-59 0-34 97-39 157H25l-1-190h47c2 12-1 28 3 38 12-26 28-41 61-42" id="cu"/><path fill="#fc9432" d="M137-138c1-29-70-34-71-4 15 46 118 7 119 86 1 83-164 76-172 9l43-7c4 19 20 25 44 25 33 8 57-30 24-41C81-84 22-81 20-136c-2-80 154-74 161-7" id="cv"/><path fill="#fc9432" d="M110-194c64 0 96 36 96 99 0 64-35 99-97 99-61 0-95-36-95-99 0-62 34-99 96-99zm-1 164c35 0 45-28 45-65 0-40-10-65-43-65-34 0-45 26-45 65 0 36 10 65 43 65" id="cw"/><path fill="#fc9432" d="M135-150c-39-12-60 13-60 57V0H25l-1-190h47c2 13-1 29 3 40 6-28 27-53 61-41v41" id="cx"/><path fill="#fc9432" d="M88-194c31-1 46 15 58 34l-1-101h50l1 261h-48c-2-10 0-23-3-31C134-8 116 4 84 4 32 4 16-41 15-95c0-56 19-97 73-99zm17 164c33 0 40-30 41-66 1-37-9-64-41-64s-38 30-39 65c0 43 13 65 39 65" id="cy"/><path fill="#fc9432" d="M24 0v-248h52v208h133V0H24" id="cz"/><path fill="#fc9432" d="M25-224v-37h50v37H25zM25 0v-190h50V0H25" id="cA"/><path fill="#fc9432" d="M147 0L96-86 75-71V0H25v-261h50v150l67-79h53l-66 74L201 0h-54" id="cB"/><g id="W"><use transform="matrix(0.05,0,0,0.05,0,0)" xlink:href="#cq"/><use transform="matrix(0.05,0,0,0.05,12,0)" xlink:href="#cr"/><use transform="matrix(0.05,0,0,0.05,22,0)" xlink:href="#cs"/><use transform="matrix(0.05,0,0,0.05,27.950000000000003,0)" xlink:href="#ct"/><use transform="matrix(0.05,0,0,0.05,40.9,0)" xlink:href="#cu"/><use transform="matrix(0.05,0,0,0.05,51.85,0)" xlink:href="#cv"/><use transform="matrix(0.05,0,0,0.05,61.85,0)" xlink:href="#cw"/><use transform="matrix(0.05,0,0,0.05,72.8,0)" xlink:href="#cx"/><use transform="matrix(0.05,0,0,0.05,79.8,0)" xlink:href="#cs"/><use transform="matrix(0.05,0,0,0.05,85.75,0)" xlink:href="#cr"/><use transform="matrix(0.05,0,0,0.05,95.75,0)" xlink:href="#cy"/><use transform="matrix(0.05,0,0,0.05,106.7,0)" xlink:href="#cz"/><use transform="matrix(0.05,0,0,0.05,117.65,0)" xlink:href="#cA"/><use transform="matrix(0.05,0,0,0.05,122.65,0)" xlink:href="#cu"/><use transform="matrix(0.05,0,0,0.05,133.6,0)" xlink:href="#cB"/><use transform="matrix(0.05,0,0,0.05,143.6,0)" xlink:href="#cr"/><use transform="matrix(0.05,0,0,0.05,153.6,0)" xlink:href="#cy"/><use transform="matrix(0.05,0,0,0.05,164.54999999999998,0)" xlink:href="#cz"/><use transform="matrix(0.05,0,0,0.05,175.49999999999997,0)" xlink:href="#cA"/><use transform="matrix(0.05,0,0,0.05,180.49999999999997,0)" xlink:href="#cv"/><use transform="matrix(0.05,0,0,0.05,190.49999999999997,0)" xlink:href="#cs"/></g><g id="X"><use transform="matrix(0.05,0,0,0.05,0,0)" xlink:href="#cq"/><use transform="matrix(0.05,0,0,0.05,12,0)" xlink:href="#cr"/><use transform="matrix(0.05,0,0,0.05,22,0)" xlink:href="#cs"/><use transform="matrix(0.05,0,0,0.05,27.950000000000003,0)" xlink:href="#cq"/><use transform="matrix(0.05,0,0,0.05,39.95,0)" xlink:href="#cw"/><use transform="matrix(0.05,0,0,0.05,50.900000000000006,0)" xlink:href="#cx"/><use transform="matrix(0.05,0,0,0.05,57.900000000000006,0)" xlink:href="#cs"/><use transform="matrix(0.05,0,0,0.05,63.85,0)" xlink:href="#cr"/><use transform="matrix(0.05,0,0,0.05,73.85000000000001,0)" xlink:href="#cy"/><use transform="matrix(0.05,0,0,0.05,84.80000000000001,0)" xlink:href="#cz"/><use transform="matrix(0.05,0,0,0.05,95.75000000000001,0)" xlink:href="#cA"/><use transform="matrix(0.05,0,0,0.05,100.75000000000001,0)" xlink:href="#cu"/><use transform="matrix(0.05,0,0,0.05,111.7,0)" xlink:href="#cB"/><use transform="matrix(0.05,0,0,0.05,121.7,0)" xlink:href="#cr"/><use transform="matrix(0.05,0,0,0.05,131.70000000000002,0)" xlink:href="#cy"/><use transform="matrix(0.05,0,0,0.05,142.65,0)" xlink:href="#cz"/><use transform="matrix(0.05,0,0,0.05,153.6,0)" xlink:href="#cA"/><use transform="matrix(0.05,0,0,0.05,158.6,0)" xlink:href="#cv"/><use transform="matrix(0.05,0,0,0.05,168.6,0)" xlink:href="#cs"/></g><path fill="#fc9432" d="M230 0l2-204L168 0h-37L68-204 70 0H24v-248h70l56 185 57-185h69V0h-46" id="cC"/><path fill="#fc9432" d="M85 4C-2 5 27-109 22-190h50c7 57-23 150 33 157 60-5 35-97 40-157h50l1 190h-47c-2-12 1-28-3-38-12 25-28 42-61 42" id="cD"/><path fill="#fc9432" d="M25 0v-261h50V0H25" id="cE"/><g id="Y"><use transform="matrix(0.05,0,0,0.05,0,0)" xlink:href="#cC"/><use transform="matrix(0.05,0,0,0.05,14.950000000000001,0)" xlink:href="#cD"/><use transform="matrix(0.05,0,0,0.05,25.900000000000002,0)" xlink:href="#cE"/><use transform="matrix(0.05,0,0,0.05,30.900000000000002,0)" xlink:href="#cs"/><use transform="matrix(0.05,0,0,0.05,36.85,0)" xlink:href="#cA"/><use transform="matrix(0.05,0,0,0.05,41.85,0)" xlink:href="#cq"/><use transform="matrix(0.05,0,0,0.05,53.85,0)" xlink:href="#cr"/><use transform="matrix(0.05,0,0,0.05,63.85,0)" xlink:href="#cs"/><use transform="matrix(0.05,0,0,0.05,69.8,0)" xlink:href="#cq"/><use transform="matrix(0.05,0,0,0.05,81.8,0)" xlink:href="#cw"/><use transform="matrix(0.05,0,0,0.05,92.75,0)" xlink:href="#cx"/><use transform="matrix(0.05,0,0,0.05,99.75,0)" xlink:href="#cs"/><use transform="matrix(0.05,0,0,0.05,105.7,0)" xlink:href="#cr"/><use transform="matrix(0.05,0,0,0.05,115.7,0)" xlink:href="#cy"/><use transform="matrix(0.05,0,0,0.05,126.65,0)" xlink:href="#cz"/><use transform="matrix(0.05,0,0,0.05,137.6,0)" xlink:href="#cA"/><use transform="matrix(0.05,0,0,0.05,142.6,0)" xlink:href="#cu"/><use transform="matrix(0.05,0,0,0.05,153.54999999999998,0)" xlink:href="#cB"/><use transform="matrix(0.05,0,0,0.05,163.54999999999998,0)" xlink:href="#cr"/><use transform="matrix(0.05,0,0,0.05,173.54999999999998,0)" xlink:href="#cy"/><use transform="matrix(0.05,0,0,0.05,184.49999999999997,0)" xlink:href="#cz"/><use transform="matrix(0.05,0,0,0.05,195.44999999999996,0)" xlink:href="#cA"/><use transform="matrix(0.05,0,0,0.05,200.44999999999996,0)" xlink:href="#cv"/><use transform="matrix(0.05,0,0,0.05,210.44999999999996,0)" xlink:href="#cs"/></g><g id="Z"><use transform="matrix(0.05,0,0,0.05,0,0)" xlink:href="#cC"/><use transform="matrix(0.05,0,0,0.05,14.950000000000001,0)" xlink:href="#cD"/><use transform="matrix(0.05,0,0,0.05,25.900000000000002,0)" xlink:href="#cE"/><use transform="matrix(0.05,0,0,0.05,30.900000000000002,0)" xlink:href="#cs"/><use transform="matrix(0.05,0,0,0.05,36.85,0)" xlink:href="#cA"/><use transform="matrix(0.05,0,0,0.05,41.85,0)" xlink:href="#cq"/><use transform="matrix(0.05,0,0,0.05,53.85,0)" xlink:href="#cr"/><use transform="matrix(0.05,0,0,0.05,63.85,0)" xlink:href="#cs"/><use transform="matrix(0.05,0,0,0.05,69.8,0)" xlink:href="#ct"/><use transform="matrix(0.05,0,0,0.05,82.75,0)" xlink:href="#cu"/><use transform="matrix(0.05,0,0,0.05,93.7,0)" xlink:href="#cv"/><use transform="matrix(0.05,0,0,0.05,103.7,0)" xlink:href="#cw"/><use transform="matrix(0.05,0,0,0.05,114.65,0)" xlink:href="#cx"/><use transform="matrix(0.05,0,0,0.05,121.65,0)" xlink:href="#cs"/><use transform="matrix(0.05,0,0,0.05,127.60000000000001,0)" xlink:href="#cr"/><use transform="matrix(0.05,0,0,0.05,137.60000000000002,0)" xlink:href="#cy"/><use transform="matrix(0.05,0,0,0.05,148.55,0)" xlink:href="#cz"/><use transform="matrix(0.05,0,0,0.05,159.5,0)" xlink:href="#cA"/><use transform="matrix(0.05,0,0,0.05,164.5,0)" xlink:href="#cu"/><use transform="matrix(0.05,0,0,0.05,175.45,0)" xlink:href="#cB"/><use transform="matrix(0.05,0,0,0.05,185.45,0)" xlink:href="#cr"/><use transform="matrix(0.05,0,0,0.05,195.45,0)" xlink:href="#cy"/><use transform="matrix(0.05,0,0,0.05,206.39999999999998,0)" xlink:href="#cz"/><use transform="matrix(0.05,0,0,0.05,217.34999999999997,0)" xlink:href="#cA"/><use transform="matrix(0.05,0,0,0.05,222.34999999999997,0)" xlink:href="#cv"/><use transform="matrix(0.05,0,0,0.05,232.34999999999997,0)" xlink:href="#cs"/></g><path fill="#008a0e" d="M182-130c37 4 62 22 62 59C244 23 116-4 24 0v-248c84 5 203-23 205 63 0 31-19 50-47 55zM76-148c40-3 101 13 101-30 0-44-60-28-101-31v61zm0 110c48-3 116 14 116-37 0-48-69-32-116-35v72" id="cF"/><path fill="#008a0e" d="M25-224v-37h50v37H25zM25 0v-190h50V0H25" id="cG"/><path fill="#008a0e" d="M135-194c87-1 58 113 63 194h-50c-7-57 23-157-34-157-59 0-34 97-39 157H25l-1-190h47c2 12-1 28 3 38 12-26 28-41 61-42" id="cH"/><path fill="#008a0e" d="M169-182c-1-43-94-46-97-3 18 66 151 10 154 114 3 95-165 93-204 36-6-8-10-19-12-30l50-8c3 46 112 56 116 5-17-69-150-10-154-114-4-87 153-88 188-35 5 8 8 18 10 28" id="cI"/><path fill="#008a0e" d="M185-48c-13 30-37 53-82 52C43 2 14-33 14-96s30-98 90-98c62 0 83 45 84 108H66c0 31 8 55 39 56 18 0 30-7 34-22zm-45-69c5-46-57-63-70-21-2 6-4 13-4 21h74" id="cJ"/><path fill="#008a0e" d="M133-34C117-15 103 5 69 4 32 3 11-16 11-54c-1-60 55-63 116-61 1-26-3-47-28-47-18 1-26 9-28 27l-52-2c7-38 36-58 82-57s74 22 75 68l1 82c-1 14 12 18 25 15v27c-30 8-71 5-69-32zm-48 3c29 0 43-24 42-57-32 0-66-3-65 30 0 17 8 27 23 27" id="cK"/><path fill="#008a0e" d="M135-150c-39-12-60 13-60 57V0H25l-1-190h47c2 13-1 29 3 40 6-28 27-53 61-41v41" id="cL"/><path fill="#008a0e" d="M190-63c-7 42-38 67-86 67-59 0-84-38-90-98-12-110 154-137 174-36l-49 2c-2-19-15-32-35-32-30 0-35 28-38 64-6 74 65 87 74 30" id="cM"/><path fill="#008a0e" d="M114-157C55-157 80-60 75 0H25v-261h50l-1 109c12-26 28-41 61-42 86-1 58 113 63 194h-50c-7-57 23-157-34-157" id="cN"/><path fill="#008a0e" d="M136-208V0H84v-208H4v-40h212v40h-80" id="cO"/><g id="aa"><use transform="matrix(0.05,0,0,0.05,0,0)" xlink:href="#cF"/><use transform="matrix(0.05,0,0,0.05,12.950000000000001,0)" xlink:href="#cG"/><use transform="matrix(0.05,0,0,0.05,17.950000000000003,0)" xlink:href="#cH"/><use transform="matrix(0.05,0,0,0.05,28.900000000000006,0)" xlink:href="#cI"/><use transform="matrix(0.05,0,0,0.05,40.900000000000006,0)" xlink:href="#cJ"/><use transform="matrix(0.05,0,0,0.05,50.900000000000006,0)" xlink:href="#cK"/><use transform="matrix(0.05,0,0,0.05,60.900000000000006,0)" xlink:href="#cL"/><use transform="matrix(0.05,0,0,0.05,67.9,0)" xlink:href="#cM"/><use transform="matrix(0.05,0,0,0.05,77.9,0)" xlink:href="#cN"/><use transform="matrix(0.05,0,0,0.05,88.85000000000001,0)" xlink:href="#cO"/><use transform="matrix(0.05,0,0,0.05,98.80000000000001,0)" xlink:href="#cL"/><use transform="matrix(0.05,0,0,0.05,105.80000000000001,0)" xlink:href="#cJ"/><use transform="matrix(0.05,0,0,0.05,115.80000000000001,0)" xlink:href="#cJ"/></g><path fill="#008573" d="M199 0l-22-63H83L61 0H9l90-248h61L250 0h-51zm-33-102l-36-108c-10 38-24 72-36 108h72" id="cP"/><path fill="#008573" d="M147 0H94L2-248h55l64 206c17-72 42-137 63-206h54" id="cQ"/><path fill="#008573" d="M24 0v-248h52v208h133V0H24" id="cR"/><path fill="#008573" d="M136-208V0H84v-208H4v-40h212v40h-80" id="cS"/><path fill="#008573" d="M135-150c-39-12-60 13-60 57V0H25l-1-190h47c2 13-1 29 3 40 6-28 27-53 61-41v41" id="cT"/><path fill="#008573" d="M185-48c-13 30-37 53-82 52C43 2 14-33 14-96s30-98 90-98c62 0 83 45 84 108H66c0 31 8 55 39 56 18 0 30-7 34-22zm-45-69c5-46-57-63-70-21-2 6-4 13-4 21h74" id="cU"/><g id="ab"><use transform="matrix(0.05,0,0,0.05,0,0)" xlink:href="#cP"/><use transform="matrix(0.05,0,0,0.05,11.600000000000001,0)" xlink:href="#cQ"/><use transform="matrix(0.05,0,0,0.05,23.6,0)" xlink:href="#cR"/><use transform="matrix(0.05,0,0,0.05,33.2,0)" xlink:href="#cS"/><use transform="matrix(0.05,0,0,0.05,43.150000000000006,0)" xlink:href="#cT"/><use transform="matrix(0.05,0,0,0.05,50.150000000000006,0)" xlink:href="#cU"/><use transform="matrix(0.05,0,0,0.05,60.150000000000006,0)" xlink:href="#cU"/></g><path fill="#d916a8" d="M136-208V0H84v-208H4v-40h212v40h-80" id="cV"/><path fill="#d916a8" d="M135-150c-39-12-60 13-60 57V0H25l-1-190h47c2 13-1 29 3 40 6-28 27-53 61-41v41" id="cW"/><path fill="#d916a8" d="M185-48c-13 30-37 53-82 52C43 2 14-33 14-96s30-98 90-98c62 0 83 45 84 108H66c0 31 8 55 39 56 18 0 30-7 34-22zm-45-69c5-46-57-63-70-21-2 6-4 13-4 21h74" id="cX"/><path fill="#d916a8" d="M133-34C117-15 103 5 69 4 32 3 11-16 11-54c-1-60 55-63 116-61 1-26-3-47-28-47-18 1-26 9-28 27l-52-2c7-38 36-58 82-57s74 22 75 68l1 82c-1 14 12 18 25 15v27c-30 8-71 5-69-32zm-48 3c29 0 43-24 42-57-32 0-66-3-65 30 0 17 8 27 23 27" id="cY"/><path fill="#d916a8" d="M135-194c53 0 70 44 70 98 0 56-19 98-73 100-31 1-45-17-59-34 3 33 2 69 2 105H25l-1-265h48c2 10 0 23 3 31 11-24 29-35 60-35zM114-30c33 0 39-31 40-66 0-38-9-64-40-64-56 0-55 130 0 130" id="cZ"/><g id="ac"><use transform="matrix(0.05,0,0,0.05,0,0)" xlink:href="#cV"/><use transform="matrix(0.05,0,0,0.05,9.950000000000001,0)" xlink:href="#cW"/><use transform="matrix(0.05,0,0,0.05,16.950000000000003,0)" xlink:href="#cX"/><use transform="matrix(0.05,0,0,0.05,26.950000000000003,0)" xlink:href="#cY"/><use transform="matrix(0.05,0,0,0.05,36.95,0)" xlink:href="#cZ"/></g><path fill="#e81313" d="M186 0v-106H76V0H24v-248h52v99h110v-99h50V0h-50" id="da"/><path fill="#e81313" d="M133-34C117-15 103 5 69 4 32 3 11-16 11-54c-1-60 55-63 116-61 1-26-3-47-28-47-18 1-26 9-28 27l-52-2c7-38 36-58 82-57s74 22 75 68l1 82c-1 14 12 18 25 15v27c-30 8-71 5-69-32zm-48 3c29 0 43-24 42-57-32 0-66-3-65 30 0 17 8 27 23 27" id="db"/><path fill="#e81313" d="M137-138c1-29-70-34-71-4 15 46 118 7 119 86 1 83-164 76-172 9l43-7c4 19 20 25 44 25 33 8 57-30 24-41C81-84 22-81 20-136c-2-80 154-74 161-7" id="dc"/><path fill="#e81313" d="M114-157C55-157 80-60 75 0H25v-261h50l-1 109c12-26 28-41 61-42 86-1 58 113 63 194h-50c-7-57 23-157-34-157" id="dd"/><path fill="#e81313" d="M136-208V0H84v-208H4v-40h212v40h-80" id="de"/><path fill="#e81313" d="M135-194c53 0 70 44 70 98 0 56-19 98-73 100-31 1-45-17-59-34 3 33 2 69 2 105H25l-1-265h48c2 10 0 23 3 31 11-24 29-35 60-35zM114-30c33 0 39-31 40-66 0-38-9-64-40-64-56 0-55 130 0 130" id="df"/><path fill="#e81313" d="M169-182c-1-43-94-46-97-3 18 66 151 10 154 114 3 95-165 93-204 36-6-8-10-19-12-30l50-8c3 46 112 56 116 5-17-69-150-10-154-114-4-87 153-88 188-35 5 8 8 18 10 28" id="dg"/><path fill="#e81313" d="M185-48c-13 30-37 53-82 52C43 2 14-33 14-96s30-98 90-98c62 0 83 45 84 108H66c0 31 8 55 39 56 18 0 30-7 34-22zm-45-69c5-46-57-63-70-21-2 6-4 13-4 21h74" id="dh"/><path fill="#e81313" d="M67-125c0 53 21 87 73 88 37 1 54-22 65-47l45 17C233-25 199 4 140 4 58 4 20-42 15-125 8-235 124-281 211-232c18 10 29 29 36 50l-46 12c-8-25-30-41-62-41-52 0-71 34-72 86" id="di"/><path fill="#e81313" d="M25-224v-37h50v37H25zM25 0v-190h50V0H25" id="dj"/><path fill="#e81313" d="M135-194c87-1 58 113 63 194h-50c-7-57 23-157-34-157-59 0-34 97-39 157H25l-1-190h47c2 12-1 28 3 38 12-26 28-41 61-42" id="dk"/><g id="ad"><use transform="matrix(0.05,0,0,0.05,0,0)" xlink:href="#da"/><use transform="matrix(0.05,0,0,0.05,12.950000000000001,0)" xlink:href="#db"/><use transform="matrix(0.05,0,0,0.05,22.950000000000003,0)" xlink:href="#dc"/><use transform="matrix(0.05,0,0,0.05,32.95,0)" xlink:href="#dd"/><use transform="matrix(0.05,0,0,0.05,43.900000000000006,0)" xlink:href="#de"/><use transform="matrix(0.05,0,0,0.05,53.5,0)" xlink:href="#db"/><use transform="matrix(0.05,0,0,0.05,63.5,0)" xlink:href="#df"/><use transform="matrix(0.05,0,0,0.05,74.45,0)" xlink:href="#dg"/><use transform="matrix(0.05,0,0,0.05,86.45,0)" xlink:href="#dh"/><use transform="matrix(0.05,0,0,0.05,96.45,0)" xlink:href="#df"/><use transform="matrix(0.05,0,0,0.05,107.4,0)" xlink:href="#di"/><use transform="matrix(0.05,0,0,0.05,120.35000000000001,0)" xlink:href="#dd"/><use transform="matrix(0.05,0,0,0.05,131.3,0)" xlink:href="#db"/><use transform="matrix(0.05,0,0,0.05,141.3,0)" xlink:href="#dj"/><use transform="matrix(0.05,0,0,0.05,146.3,0)" xlink:href="#dk"/></g><path fill="#e81313" d="M140-251c80 0 125 45 125 126 0 70-33 111-92 124 6 28 34 38 68 31l-1 36C177 83 129 55 120 2 51-6 15-50 15-125c0-81 44-126 125-126zm-1 214c52 0 73-35 73-88 0-50-21-86-72-86-52 0-73 35-73 86s22 88 72 88" id="dl"/><path fill="#e81313" d="M85 4C-2 5 27-109 22-190h50c7 57-23 150 33 157 60-5 35-97 40-157h50l1 190h-47c-2-12 1-28-3-38-12 25-28 42-61 42" id="dm"/><path fill="#e81313" d="M88-194c31-1 46 15 58 34l-1-101h50l1 261h-48c-2-10 0-23-3-31C134-8 116 4 84 4 32 4 16-41 15-95c0-56 19-97 73-99zm17 164c33 0 40-30 41-66 1-37-9-64-41-64s-38 30-39 65c0 43 13 65 39 65" id="dn"/><path fill="#e81313" d="M24-248c93 1 206-16 204 79-1 75-69 88-152 82V0H24v-248zm52 121c47 0 100 7 100-41 0-47-54-39-100-39v80" id="do"/><path fill="#e81313" d="M135-150c-39-12-60 13-60 57V0H25l-1-190h47c2 13-1 29 3 40 6-28 27-53 61-41v41" id="dp"/><path fill="#e81313" d="M110-194c64 0 96 36 96 99 0 64-35 99-97 99-61 0-95-36-95-99 0-62 34-99 96-99zm-1 164c35 0 45-28 45-65 0-40-10-65-43-65-34 0-45 26-45 65 0 36 10 65 43 65" id="dq"/><g id="ae"><use transform="matrix(0.05,0,0,0.05,0,0)" xlink:href="#da"/><use transform="matrix(0.05,0,0,0.05,12.950000000000001,0)" xlink:href="#db"/><use transform="matrix(0.05,0,0,0.05,22.950000000000003,0)" xlink:href="#dc"/><use transform="matrix(0.05,0,0,0.05,32.95,0)" xlink:href="#dd"/><use transform="matrix(0.05,0,0,0.05,43.900000000000006,0)" xlink:href="#de"/><use transform="matrix(0.05,0,0,0.05,53.5,0)" xlink:href="#db"/><use transform="matrix(0.05,0,0,0.05,63.5,0)" xlink:href="#df"/><use transform="matrix(0.05,0,0,0.05,74.45,0)" xlink:href="#dl"/><use transform="matrix(0.05,0,0,0.05,88.45,0)" xlink:href="#dm"/><use transform="matrix(0.05,0,0,0.05,99.4,0)" xlink:href="#db"/><use transform="matrix(0.05,0,0,0.05,109.4,0)" xlink:href="#dn"/><use transform="matrix(0.05,0,0,0.05,120.35000000000001,0)" xlink:href="#do"/><use transform="matrix(0.05,0,0,0.05,132.35000000000002,0)" xlink:href="#dp"/><use transform="matrix(0.05,0,0,0.05,139.35000000000002,0)" xlink:href="#dq"/><use transform="matrix(0.05,0,0,0.05,150.3,0)" xlink:href="#df"/></g><path fill="#333" d="M186 0v-106H76V0H24v-248h52v99h110v-99h50V0h-50" id="dr"/><path fill="#333" d="M135-194c53 0 70 44 70 98 0 56-19 98-73 100-31 1-45-17-59-34 3 33 2 69 2 105H25l-1-265h48c2 10 0 23 3 31 11-24 29-35 60-35zM114-30c33 0 39-31 40-66 0-38-9-64-40-64-56 0-55 130 0 130" id="ds"/><g id="af"><use transform="matrix(0.05,0,0,0.05,0,0)" xlink:href="#dr"/><use transform="matrix(0.05,0,0,0.05,12.950000000000001,0)" xlink:href="#bB"/><use transform="matrix(0.05,0,0,0.05,22.950000000000003,0)" xlink:href="#bz"/><use transform="matrix(0.05,0,0,0.05,27.950000000000003,0)" xlink:href="#ds"/><use transform="matrix(0.05,0,0,0.05,38.900000000000006,0)" xlink:href="#bB"/><use transform="matrix(0.05,0,0,0.05,48.900000000000006,0)" xlink:href="#aD"/></g><path fill="#333" d="M108 0H70L1-190h34L89-25l56-165h34" id="dt"/><g id="ag"><use transform="matrix(0.05,0,0,0.05,0,0)" xlink:href="#bZ"/><use transform="matrix(0.05,0,0,0.05,10,0)" xlink:href="#cj"/><use transform="matrix(0.05,0,0,0.05,15.949999999999998,0)" xlink:href="#aq"/><use transform="matrix(0.05,0,0,0.05,19.9,0)" xlink:href="#dt"/><use transform="matrix(0.05,0,0,0.05,28.899999999999995,0)" xlink:href="#cm"/><use transform="matrix(0.05,0,0,0.05,38.9,0)" xlink:href="#ar"/><use transform="matrix(0.05,0,0,0.05,43.9,0)" xlink:href="#as"/></g><path fill="#333" d="M115-194c53 0 69 39 70 98 0 66-23 100-70 100C84 3 66-7 56-30L54 0H23l1-261h32v101c10-23 28-34 59-34zm-8 174c40 0 45-34 45-75 0-40-5-75-45-74-42 0-51 32-51 76 0 43 10 73 51 73" id="du"/><g id="ah"><use transform="matrix(0.05,0,0,0.05,0,0)" xlink:href="#cb"/><use transform="matrix(0.05,0,0,0.05,5.95,0)" xlink:href="#du"/><use transform="matrix(0.05,0,0,0.05,15.949999999999998,0)" xlink:href="#ch"/><use transform="matrix(0.05,0,0,0.05,25.950000000000003,0)" xlink:href="#ch"/><use transform="matrix(0.05,0,0,0.05,35.95,0)" xlink:href="#at"/><use transform="matrix(0.05,0,0,0.05,39.900000000000006,0)" xlink:href="#ck"/></g><g id="ai"><use transform="matrix(0.05,0,0,0.05,0,0)" xlink:href="#bZ"/><use transform="matrix(0.05,0,0,0.05,10,0)" xlink:href="#cd"/></g><path fill="#333" d="M-5 72V49h209v23H-5" id="dv"/><g id="aj"><use transform="matrix(0.05,0,0,0.05,0,0)" xlink:href="#dv"/><use transform="matrix(0.05,0,0,0.05,10,0)" xlink:href="#am"/><use transform="matrix(0.05,0,0,0.05,19,0)" xlink:href="#as"/><use transform="matrix(0.05,0,0,0.05,29,0)" xlink:href="#cm"/><use transform="matrix(0.05,0,0,0.05,39,0)" xlink:href="#cj"/><use transform="matrix(0.05,0,0,0.05,44.95,0)" xlink:href="#an"/><use transform="matrix(0.05,0,0,0.05,53.95,0)" xlink:href="#ao"/><use transform="matrix(0.05,0,0,0.05,63.95,0)" xlink:href="#cb"/><use transform="matrix(0.05,0,0,0.05,69.9,0)" xlink:href="#aq"/><use transform="matrix(0.05,0,0,0.05,73.85000000000001,0)" xlink:href="#ar"/><use transform="matrix(0.05,0,0,0.05,78.85000000000001,0)" xlink:href="#as"/><use transform="matrix(0.05,0,0,0.05,88.85000000000001,0)" xlink:href="#cc"/></g><g id="ak"><use transform="matrix(0.05,0,0,0.05,0,0)" xlink:href="#as"/><use transform="matrix(0.05,0,0,0.05,10,0)" xlink:href="#cd"/></g></defs></g></svg>